<svg width="698" height="569" viewBox="0 0 698 569" fill="none" xmlns="http://www.w3.org/2000/svg">
<path d="M416.759 405.825L331.559 416.636C297.816 420.899 263.815 422.787 229.808 422.286C151.908 421.174 0.987061 426.12 0.987061 481.147C0.987061 555.313 252.936 507.872 323.934 541.906C394.932 575.94 525.005 580.065 574.688 541.906C624.371 503.747 710.323 505.873 690.121 456.217C676.41 422.517 581.421 408.99 517.794 403.675C484.133 400.863 450.27 401.583 416.759 405.825Z" fill="#FBE5D8"/>
<path d="M67.2071 279.964C67.2071 279.964 31.033 177.445 79.22 143.493C127.407 109.541 197.81 258.287 197.81 258.287C197.81 258.287 180.11 8.87301 276.71 0.245008C373.31 -8.38299 389.853 214.067 390.21 232.99C390.567 251.913 427.936 5.99686 541.56 15.3449C655.184 24.6929 581.79 274.922 581.79 274.922C581.79 274.922 601.254 169.052 672.79 208.922C750.411 252.177 623.632 442.489 623.632 442.489H104.811L67.2071 279.964Z" fill="#FBE5D8"/>
<path d="M261.41 412.023L292.755 395.687C298.066 387.004 302.055 376.821 302.464 365.523C302.689 361.747 302.497 357.957 301.893 354.223L256.384 383.755C257.721 393.213 259.376 402.692 261.41 412.023Z" fill="url(#paint0_radial)"/>
<path d="M250.684 265C241.913 266.4 234.356 278.978 230.154 295.343L249.541 306.854C249.489 289.957 250.071 275.45 250.684 265Z" fill="url(#paint1_radial)"/>
<path d="M249.55 308.843L229.725 297.072C226.683 309.874 225.884 323.106 227.364 336.181L250.655 343.065C249.933 331.029 249.614 319.488 249.55 308.843Z" fill="url(#paint2_radial)"/>
<path d="M251.248 306.8L273.718 293.958C272.526 285.207 269.351 276.751 262.255 269.713C258.9 266.386 255.584 264.881 252.404 264.853C251.788 275.29 251.2 289.841 251.248 306.8Z" fill="url(#paint3_radial)"/>
<path d="M256.123 381.888L301.475 352.458C297.255 337.737 281.375 357.349 274.088 346.688C272.142 343.841 271.683 339.614 271.868 334.509L252.468 344.684C253.227 356.751 254.4 369.287 256.123 381.888Z" fill="url(#paint4_radial)"/>
<path d="M250.77 344.883L227.611 338.037C228.402 343.92 229.909 349.685 232.098 355.203C235.863 364.415 237.017 370.508 236.563 374.694L254.419 382.021C252.7 369.441 251.53 356.929 250.77 344.883Z" fill="url(#paint5_radial)"/>
<path d="M290.9 398.583L261.794 413.751C262.423 416.564 263.087 419.361 263.786 422.142C269.609 420.419 274.896 417.24 279.147 412.904C283.497 408.503 287.432 403.709 290.9 398.583Z" fill="url(#paint6_radial)"/>
<path d="M252.349 342.813L271.965 332.526C272.618 322.191 275.311 308.756 273.952 295.799L251.252 308.768C251.319 319.36 251.634 330.84 252.349 342.813Z" fill="url(#paint7_radial)"/>
<path d="M214.09 403.288C218.059 412.594 231.99 415.559 235.29 417.829C239.175 420.468 243.575 422.253 248.2 423.069C252.825 423.884 257.57 423.71 262.123 422.558C261.41 419.728 260.734 416.88 260.097 414.015L214.09 403.288Z" fill="url(#paint8_radial)"/>
<path d="M254.692 383.981L236.264 376.419C233.416 387.808 216.045 382.007 213.41 394.441C212.882 396.725 212.891 399.1 213.436 401.38L259.691 412.164C257.669 402.858 256.024 393.408 254.692 383.981Z" fill="url(#paint9_radial)"/>
<path opacity="0.47" d="M256.123 381.888C254.396 369.288 253.223 356.751 252.467 344.688L251.612 345.136L250.77 344.887C251.53 356.933 252.698 369.445 254.419 382.025L255.338 382.402L256.123 381.888Z" fill="#F37021"/>
<path opacity="0.47" d="M261.41 412.023C259.376 402.692 257.721 393.213 256.384 383.757L255.517 384.32L254.692 383.981C256.024 393.408 257.669 402.858 259.692 412.164L260.692 412.398L261.41 412.023Z" fill="#F37021"/>
<path opacity="0.47" d="M252.349 342.813C251.634 330.84 251.319 319.36 251.257 308.768L250.323 309.302L249.55 308.843C249.614 319.488 249.933 331.029 250.655 343.065L251.432 343.295L252.349 342.813Z" fill="#F37021"/>
<path opacity="0.47" d="M249.541 306.849L250.341 307.323L251.249 306.804C251.199 289.841 251.789 275.29 252.405 264.857C251.829 264.855 251.253 264.901 250.685 264.995C250.071 275.45 249.489 289.957 249.541 306.849Z" fill="#F37021"/>
<path opacity="0.47" d="M260.92 414.206L260.101 414.015C260.74 416.882 261.415 419.729 262.127 422.558C262.68 422.423 263.237 422.304 263.785 422.142C263.085 419.363 262.421 416.566 261.793 413.751L260.92 414.206Z" fill="#F37021"/>
<path opacity="0.47" d="M249.541 306.849L230.154 295.338C230.007 295.911 229.864 296.489 229.725 297.072L249.55 308.843C249.546 308.174 249.543 307.51 249.541 306.849Z" fill="#F37021"/>
<path opacity="0.47" d="M251.257 308.768L273.957 295.799C273.892 295.185 273.807 294.574 273.723 293.962L251.253 306.804C251.252 307.455 251.253 308.11 251.257 308.768Z" fill="#F37021"/>
<path opacity="0.47" d="M251.257 308.768C251.253 308.11 251.25 307.455 251.248 306.804L250.34 307.323L249.54 306.849C249.54 307.51 249.543 308.174 249.549 308.843L250.322 309.302L251.257 308.768Z" fill="#F37021"/>
<path opacity="0.47" d="M252.467 344.684L271.867 334.509C271.891 333.86 271.921 333.202 271.967 332.526L252.351 342.813C252.386 343.434 252.428 344.06 252.467 344.684Z" fill="#F37021"/>
<path opacity="0.47" d="M250.655 343.065L227.364 336.181C227.44 336.802 227.522 337.421 227.611 338.037L250.77 344.883C250.731 344.277 250.691 343.669 250.655 343.065Z" fill="#F37021"/>
<path opacity="0.47" d="M252.467 344.684C252.428 344.06 252.386 343.434 252.349 342.813L251.432 343.295L250.655 343.065C250.691 343.665 250.731 344.277 250.77 344.883L251.612 345.132L252.467 344.684Z" fill="#F37021"/>
<path opacity="0.47" d="M256.384 383.757L301.893 354.225C301.77 353.588 301.631 352.999 301.475 352.458L256.123 381.888C256.209 382.511 256.296 383.134 256.384 383.757Z" fill="#F37021"/>
<path opacity="0.47" d="M254.419 382.021L236.563 374.694C236.502 375.275 236.402 375.851 236.263 376.419L254.691 383.981C254.598 383.327 254.508 382.674 254.419 382.021Z" fill="#F37021"/>
<path opacity="0.47" d="M256.384 383.757C256.296 383.134 256.209 382.511 256.123 381.888L255.338 382.398L254.419 382.021C254.508 382.674 254.599 383.328 254.692 383.981L255.517 384.32L256.384 383.757Z" fill="#F37021"/>
<path opacity="0.47" d="M259.691 412.164L213.436 401.38C213.604 402.032 213.823 402.67 214.09 403.288L260.101 414.015C259.963 413.4 259.825 412.782 259.691 412.164Z" fill="#F37021"/>
<path opacity="0.47" d="M261.793 413.751L290.899 398.583C291.533 397.637 292.152 396.67 292.755 395.683L261.41 412.019C261.537 412.599 261.664 413.176 261.793 413.751Z" fill="#F37021"/>
<path d="M260.691 412.4L259.691 412.166C259.825 412.784 259.963 413.401 260.101 414.017L260.92 414.208L261.793 413.753C261.664 413.178 261.536 412.602 261.41 412.025L260.691 412.4Z" fill="#7675F4"/>
<path d="M220.021 421.057C220.021 421.057 188.468 379.926 201.615 360.593C214.762 341.26 239.084 435.775 220.021 421.057Z" fill="url(#paint10_radial)"/>
<path d="M228.714 420.873C228.714 420.873 204.854 363.173 226.184 344.791C247.514 326.409 246.293 443.948 228.714 420.873Z" fill="url(#paint11_radial)"/>
<path d="M279.6 211.8L284.074 413.1L561.114 404.351L564.706 171.784C564.742 169.418 564.264 167.072 563.305 164.908C562.346 162.745 560.928 160.815 559.149 159.254C557.371 157.692 555.275 156.536 553.005 155.864C550.736 155.193 548.348 155.022 546.006 155.364L296.455 191.864C291.697 192.559 287.358 194.969 284.253 198.641C281.149 202.313 279.494 206.993 279.6 211.8Z" fill="url(#paint12_radial)"/>
<path d="M291.934 205.867L297.834 400.531L544.515 390.878C544.515 390.878 546.124 171.01 547.733 171.01C549.342 171.01 291.934 205.867 291.934 205.867Z" fill="#EFE6F5"/>
<path opacity="0.57" d="M292.418 221.82L547.74 186.832L547.733 171.009L291.933 205.866L292.418 221.82Z" fill="white"/>
<path d="M110.532 429.028V436.768L319.532 432.898L561.113 404.35L110.532 429.028Z" fill="url(#paint13_radial)"/>
<path d="M561.118 404.349L308.745 425.6L110.531 429.032L284.077 413.103L561.118 404.349Z" fill="url(#paint14_radial)"/>
<path d="M510.559 331.59H622.016C623.837 331.59 625.583 332.313 626.87 333.601C628.158 334.888 628.881 336.634 628.881 338.455V409.824C628.881 411.645 628.158 413.391 626.87 414.678C625.583 415.966 623.837 416.689 622.016 416.689H510.558C508.738 416.689 506.992 415.966 505.704 414.679C504.417 413.391 503.694 411.646 503.694 409.825V338.455C503.694 336.634 504.417 334.888 505.705 333.601C506.992 332.313 508.738 331.59 510.559 331.59Z" fill="url(#paint15_radial)"/>
<path d="M536.684 355.136C536.684 357.804 535.624 360.362 533.738 362.249C531.851 364.135 529.293 365.195 526.625 365.195C523.957 365.195 521.399 364.135 519.512 362.249C517.626 360.362 516.566 357.804 516.566 355.136C516.566 352.468 517.626 349.91 519.513 348.024C521.399 346.138 523.957 345.078 526.625 345.078C529.293 345.078 531.851 346.138 533.737 348.024C535.624 349.91 536.684 352.468 536.684 355.136Z" fill="#E2A120"/>
<path opacity="0.45" d="M547.1 355.136C547.1 356.457 546.84 357.765 546.335 358.986C545.829 360.206 545.088 361.315 544.154 362.249C543.22 363.183 542.111 363.924 540.891 364.43C539.67 364.935 538.362 365.195 537.041 365.195C534.373 365.195 531.815 364.135 529.928 362.249C528.042 360.362 526.982 357.804 526.982 355.136C526.982 352.468 528.042 349.91 529.929 348.024C531.815 346.138 534.373 345.078 537.041 345.078C538.362 345.078 539.67 345.338 540.89 345.843C542.111 346.349 543.22 347.09 544.154 348.024C545.088 348.958 545.829 350.066 546.334 351.287C546.84 352.507 547.1 353.815 547.1 355.136Z" fill="#E2A120"/>
<path d="M503.813 383.661H629V399.391L503.813 396.524V383.661Z" fill="#E2A120"/>
<path d="M615.711 351.083C615.711 351.083 589.142 274.998 617.962 252.853C646.782 230.708 636.693 382.092 615.711 351.083Z" fill="url(#paint16_radial)"/>
<path d="M623.145 354.08C623.145 354.08 618.545 291.812 644.56 281.031C670.575 270.25 632.617 381.5 623.145 354.08Z" fill="url(#paint17_radial)"/>
<path d="M649.626 276.289C655.514 266.127 663.156 262.939 670.002 264.402C667.963 271.315 665.161 281.409 662.095 294.155L649.626 276.289Z" fill="url(#paint18_radial)"/>
<path d="M671.122 264.686C678.783 266.916 685.222 274.958 686.722 285.391L663.192 294.526C666.27 281.725 669.082 271.6 671.122 264.686Z" fill="url(#paint19_radial)"/>
<path d="M656.654 324.459L675.576 320.685C668.998 336.516 676.184 340.9 682.231 352.493L650.613 359.214C652.493 346.742 654.554 335.1 656.654 324.459Z" fill="url(#paint20_radial)"/>
<path d="M649.511 358.785L637.311 346.547C637.758 337.017 637.277 323.977 639.866 308.147L655.524 324.212C653.436 334.808 651.384 346.384 649.511 358.785Z" fill="url(#paint21_radial)"/>
<path d="M644.736 396.657L614.9 371.71C617.327 367.31 620.921 364.593 625.611 364.385C634.554 363.985 636.601 358.215 637.225 348.098L649.292 360.206C647.582 371.7 646.026 383.887 644.736 396.657Z" fill="url(#paint22_radial)"/>
<path d="M642.136 429.76L615.415 412.752C610.104 397.213 609.973 381.879 614.368 372.767L644.595 398.043C643.582 408.267 642.745 418.862 642.136 429.76Z" fill="url(#paint23_radial)"/>
<path d="M655.8 322.841L640.1 306.741C641.278 299.918 642.952 293.19 645.11 286.61C646.13 283.434 647.429 280.356 648.994 277.41L661.733 295.661C659.81 303.739 657.792 312.843 655.8 322.841Z" fill="url(#paint24_radial)"/>
<path d="M662.866 295.891L686.866 286.572C687.607 293.591 686.124 301.598 681.319 309.605C679.395 312.76 677.666 316.029 676.139 319.394L656.894 323.232C658.9 313.17 660.93 304.012 662.866 295.891Z" fill="url(#paint25_radial)"/>
<path d="M650.429 360.434L682.78 353.557C685.855 359.864 687.723 366.692 688.287 373.686C688.676 377.893 688.545 382.132 687.898 386.307L645.861 397.007C647.151 384.192 648.71 371.961 650.429 360.434Z" fill="url(#paint26_radial)"/>
<path d="M670.726 425.156C667.703 429.444 664.466 433.577 661.026 437.539C658.95 439.94 656.36 441.844 653.45 443.111C650.539 444.378 647.381 444.975 644.209 444.859C643.67 444.839 643.139 444.774 642.609 444.715C642.768 440.173 642.968 435.68 643.209 431.237L670.726 425.156Z" fill="url(#paint27_radial)"/>
<path d="M645.736 398.232L687.701 387.548C685.418 400.921 678.617 413.665 671.701 423.759L643.28 430.04C643.885 419.11 644.721 408.484 645.736 398.232Z" fill="url(#paint28_radial)"/>
<path d="M642.064 431.082C641.823 435.526 641.621 440.018 641.459 444.558C636.4 443.746 631.822 441.087 628.61 437.094C623.252 430.283 619.011 422.664 616.045 414.521L642.064 431.082Z" fill="url(#paint29_radial)"/>
<path opacity="0.47" d="M655.8 322.841C657.792 312.841 659.81 303.741 661.736 295.657L662.105 296.186L662.866 295.891C660.93 304.012 658.9 313.17 656.898 323.232L656.298 323.352L655.8 322.841Z" fill="#F37021"/>
<path opacity="0.47" d="M642.136 429.76C642.745 418.86 643.582 408.267 644.595 398.043L645.034 398.411L645.734 398.232C644.719 408.484 643.883 419.11 643.275 430.04L642.755 430.155L642.136 429.76Z" fill="#F37021"/>
<path opacity="0.47" d="M649.511 358.785C651.384 346.385 653.436 334.808 655.526 324.215L655.909 324.608L656.654 324.459C654.554 335.103 652.493 346.742 650.613 359.214L650.056 359.333L649.511 358.785Z" fill="#F37021"/>
<path opacity="0.47" d="M644.736 396.657C646.026 383.887 647.582 371.697 649.296 360.206L649.682 360.593L650.429 360.434C648.71 371.961 647.151 384.192 645.861 397.008L645.321 397.146L644.736 396.657Z" fill="#F37021"/>
<path opacity="0.47" d="M642.54 431.386L643.212 431.237C642.972 435.682 642.772 440.174 642.612 444.715C642.227 444.671 641.843 444.622 641.462 444.558C641.622 440.017 641.824 435.525 642.067 431.082L642.54 431.386Z" fill="#F37021"/>
<path opacity="0.47" d="M662.532 294.782L662.095 294.155C665.161 281.409 667.963 271.315 670.002 264.402C670.378 264.482 670.751 264.578 671.122 264.686C669.082 271.601 666.27 281.725 663.192 294.526L662.532 294.782Z" fill="#F37021"/>
<path opacity="0.47" d="M663.192 294.526L686.722 285.391C686.778 285.781 686.827 286.175 686.87 286.572L662.87 295.891C662.975 295.434 663.084 294.976 663.192 294.526Z" fill="#F37021"/>
<path opacity="0.47" d="M661.736 295.657L649 277.406C649.207 277.023 649.417 276.654 649.629 276.289L662.098 294.155C661.976 294.65 661.856 295.154 661.736 295.657Z" fill="#F37021"/>
<path opacity="0.47" d="M661.736 295.657C661.856 295.157 661.976 294.65 662.095 294.157L662.532 294.784L663.192 294.528C663.084 294.978 662.975 295.436 662.866 295.893L662.105 296.188L661.736 295.657Z" fill="#F37021"/>
<path opacity="0.47" d="M656.9 323.232L676.145 319.394C675.952 319.827 675.751 320.268 675.578 320.685L656.656 324.459C656.735 324.047 656.817 323.642 656.9 323.232Z" fill="#F37021"/>
<path opacity="0.47" d="M655.526 324.215L639.868 308.15C639.945 307.68 640.02 307.212 640.103 306.737L655.803 322.837C655.708 323.3 655.617 323.753 655.526 324.215Z" fill="#F37021"/>
<path opacity="0.47" d="M655.526 324.215C655.617 323.753 655.708 323.299 655.8 322.841L656.3 323.352L656.9 323.232C656.819 323.642 656.737 324.047 656.656 324.459L655.911 324.608L655.526 324.215Z" fill="#F37021"/>
<path opacity="0.47" d="M650.613 359.214L682.231 352.493C682.414 352.846 682.599 353.193 682.78 353.557L650.429 360.434C650.49 360.026 650.552 359.621 650.613 359.214Z" fill="#F37021"/>
<path opacity="0.47" d="M649.3 360.206L637.233 348.098C637.264 347.592 637.292 347.074 637.317 346.547L649.517 358.785C649.439 359.259 649.367 359.731 649.3 360.206Z" fill="#F37021"/>
<path opacity="0.47" d="M649.3 360.206C649.371 359.731 649.443 359.259 649.515 358.785L650.06 359.333L650.617 359.214C650.556 359.621 650.494 360.026 650.433 360.434L649.686 360.593L649.3 360.206Z" fill="#F37021"/>
<path opacity="0.47" d="M644.595 398.043L614.368 372.767C614.542 372.407 614.716 372.05 614.904 371.71L644.736 396.657C644.69 397.12 644.641 397.579 644.595 398.043Z" fill="#F37021"/>
<path opacity="0.47" d="M645.861 397.008L687.898 386.308C687.836 386.722 687.772 387.136 687.698 387.549L645.733 398.233C645.777 397.822 645.82 397.417 645.861 397.008Z" fill="#F37021"/>
<path opacity="0.47" d="M644.595 398.043C644.641 397.579 644.695 397.12 644.736 396.657L645.321 397.146L645.861 397.008C645.82 397.417 645.777 397.822 645.736 398.232L645.036 398.411L644.595 398.043Z" fill="#F37021"/>
<path opacity="0.47" d="M642.064 431.082L616.045 414.521C615.828 413.931 615.618 413.341 615.415 412.752L642.136 429.76C642.111 430.2 642.088 430.641 642.064 431.082Z" fill="#F37021"/>
<path opacity="0.47" d="M643.277 430.04L671.698 423.759C671.374 424.231 671.05 424.695 670.726 425.159L643.212 431.24C643.233 430.839 643.254 430.439 643.277 430.04Z" fill="#F37021"/>
<path opacity="0.47" d="M642.757 430.155L643.277 430.04C643.255 430.44 643.233 430.84 643.212 431.24L642.54 431.389L642.064 431.089C642.088 430.648 642.111 430.207 642.136 429.767L642.757 430.155Z" fill="#F37021"/>
<path d="M328.734 70.472H442.019C442.019 70.472 437.01 54.3861 406.458 53.8121C387.839 35.1931 364.558 44.62 356.548 58.982C339.347 52.663 328.734 70.472 328.734 70.472Z" fill="#F9CFB6"/>
<path d="M77.545 97.9432H190.83C190.83 97.9432 185.821 81.857 155.269 81.283C136.65 62.664 113.369 72.091 105.359 86.453C88.158 80.134 77.545 97.9432 77.545 97.9432Z" fill="#F9CFB6"/>
<path d="M537.731 84.883H652.359C652.359 84.883 641.271 61.0709 618.102 70.5959C594.932 42.7019 565.792 64.265 566.756 76.615C550.03 69.916 537.731 84.883 537.731 84.883Z" fill="#F9CFB6"/>
<path d="M170.206 70.4719H231.59C231.59 70.4719 227.015 57.3331 204.099 63.9031C193.707 50.1071 167.851 59.2999 170.206 70.4719Z" fill="#F9CFB6"/>
<path d="M571.5 470.973C571.5 470.973 586.736 462.425 603.833 465.534L627.315 469.803L621.399 436.203L637.729 430.494L629.514 439.682L642.394 483.095L571.5 470.973Z" fill="#556CD1"/>
<path d="M512.622 487.358C512.622 487.358 511.877 472.038 512.422 463.58C512.967 455.122 525.351 452.324 528.382 466.78C531.413 481.236 525.721 497.402 525.721 497.402H488.558V490.859L512.622 487.358Z" fill="#FB927A"/>
<path d="M525.068 457.4C525.068 457.4 508.912 450.506 514.589 477.391C516.639 487.098 525.489 491.657 532.702 493.782C537.026 495.02 541.505 495.632 546.002 495.599H571.5V470.969C549.31 471.662 525.068 457.4 525.068 457.4Z" fill="#3F55C2"/>
<path d="M671.638 457.464L636.538 481.93C636.538 481.93 593.877 460.483 571.498 470.973V495.603H629.562C629.562 495.603 642.229 495.058 650.962 486.32C659.695 477.582 672.108 466.374 672.108 466.374L683.863 469.696L671.638 457.464Z" fill="#627FE1"/>
<path d="M519.982 463.364C518.929 463.76 517.762 463.721 516.737 463.256C515.712 462.792 514.914 461.939 514.518 460.886L512.87 456.502L520.812 453.517L522.46 457.9C522.656 458.421 522.748 458.976 522.729 459.533C522.711 460.09 522.583 460.638 522.353 461.145C522.123 461.653 521.795 462.11 521.388 462.49C520.981 462.871 520.504 463.168 519.982 463.364Z" fill="#FB927A"/>
<path d="M505.606 448.206C505.572 448.729 505.746 449.244 506.089 449.639C506.433 450.035 506.919 450.279 507.441 450.318C507.964 450.279 508.45 450.035 508.794 449.64C509.137 449.244 509.311 448.729 509.277 448.206C509.311 447.683 509.137 447.168 508.793 446.772C508.45 446.377 507.964 446.133 507.441 446.094C506.919 446.133 506.433 446.377 506.089 446.773C505.746 447.168 505.572 447.683 505.606 448.206Z" fill="#FB927A"/>
<path d="M521.342 448.206C521.308 448.729 521.481 449.244 521.825 449.639C522.169 450.035 522.655 450.279 523.177 450.318C523.699 450.279 524.185 450.035 524.529 449.639C524.873 449.244 525.046 448.729 525.012 448.206C525.046 447.683 524.873 447.168 524.529 446.772C524.185 446.377 523.699 446.133 523.177 446.094C522.655 446.133 522.169 446.377 521.825 446.773C521.482 447.168 521.308 447.683 521.342 448.206Z" fill="#FB927A"/>
<path d="M506.451 447.691C506.451 447.691 507.818 447.403 507.818 448.747" stroke="#24004A" stroke-width="0.282" stroke-miterlimit="10"/>
<path d="M524.147 447.691C524.147 447.691 522.78 447.403 522.78 448.747" stroke="#24004A" stroke-width="0.282" stroke-miterlimit="10"/>
<path d="M515.309 457.8C517.394 457.794 519.392 456.963 520.866 455.489C522.34 454.015 523.171 452.017 523.177 449.932V444.3C523.171 442.215 522.34 440.217 520.866 438.743C519.392 437.269 517.394 436.438 515.309 436.432C513.224 436.438 511.227 437.269 509.753 438.743C508.278 440.218 507.447 442.215 507.441 444.3V449.932C507.447 452.017 508.278 454.014 509.753 455.489C511.227 456.963 513.224 457.794 515.309 457.8Z" fill="#FDAB95"/>
<path d="M510.347 447.112C510.347 447.712 510.669 448.206 511.067 448.206C511.465 448.206 511.787 447.716 511.787 447.112C511.787 446.508 511.464 446.018 511.067 446.018C510.67 446.018 510.347 446.508 510.347 447.112Z" fill="#24004A"/>
<path d="M518.832 447.112C518.832 447.712 519.154 448.206 519.552 448.206C519.95 448.206 520.272 447.716 520.272 447.112C520.272 446.508 519.949 446.018 519.552 446.018C519.155 446.018 518.832 446.508 518.832 447.112Z" fill="#24004A"/>
<path d="M512.672 451.942C512.975 452.299 513.36 452.579 513.793 452.756C514.227 452.933 514.697 453.004 515.164 452.961C515.631 453.004 516.101 452.933 516.535 452.756C516.968 452.579 517.353 452.299 517.656 451.942" fill="white"/>
<path d="M508.128 449.166C508.128 449.343 508.163 449.517 508.23 449.68C508.298 449.844 508.397 449.992 508.521 450.117C508.646 450.242 508.794 450.34 508.958 450.408C509.121 450.475 509.295 450.51 509.472 450.51C509.828 450.51 510.17 450.369 510.422 450.116C510.674 449.864 510.816 449.522 510.816 449.166C510.816 448.81 510.674 448.468 510.422 448.216C510.17 447.964 509.828 447.822 509.472 447.822C509.116 447.822 508.774 447.964 508.522 448.216C508.27 448.468 508.128 448.81 508.128 449.166Z" fill="#FB927A"/>
<path d="M519.8 449.166C519.8 449.522 519.942 449.864 520.194 450.116C520.446 450.369 520.788 450.51 521.144 450.51C521.5 450.51 521.842 450.369 522.094 450.116C522.346 449.864 522.488 449.522 522.488 449.166C522.488 448.81 522.346 448.468 522.094 448.216C521.842 447.964 521.5 447.822 521.144 447.822C520.788 447.822 520.446 447.964 520.194 448.216C519.942 448.468 519.8 448.81 519.8 449.166Z" fill="#FB927A"/>
<path d="M510.347 445.423C510.553 445.264 510.807 445.178 511.067 445.178C511.327 445.178 511.581 445.264 511.787 445.423" stroke="#24004A" stroke-width="0.282" stroke-miterlimit="10"/>
<path d="M516.029 450.2C515.823 450.359 515.569 450.445 515.309 450.445C515.049 450.445 514.795 450.359 514.589 450.2" stroke="#24004A" stroke-width="0.282" stroke-miterlimit="10"/>
<path d="M520.272 445.423C520.066 445.264 519.812 445.178 519.552 445.178C519.292 445.178 519.038 445.264 518.832 445.423" stroke="#24004A" stroke-width="0.282" stroke-miterlimit="10"/>
<path d="M523.463 489C523.463 489 516.612 472.043 517.155 463.585C517.698 455.127 528.374 452.329 531.405 466.785C533.086 474.801 534.188 483.345 534.836 489.366C534.944 490.381 534.838 491.407 534.523 492.378C534.209 493.349 533.694 494.243 533.011 495.001C532.328 495.76 531.493 496.366 530.561 496.781C529.628 497.195 528.619 497.408 527.598 497.407H498.422V490.864L523.463 489Z" fill="#FDAB95"/>
<path d="M571.5 470.973C571.5 470.973 580.447 459.187 604.175 459.187V495.603H571.5V470.973Z" fill="#FFDA71"/>
<path d="M511.627 434.386C508.309 435.807 504.145 439.301 507.441 447.665C508.604 442.665 509.472 442.529 509.472 442.529C513.577 443.452 517.839 443.428 521.934 442.459C523.177 444.296 523.177 447.822 523.177 447.822C523.177 447.822 530.587 437.504 518.153 433.803C515.976 433.237 513.67 433.443 511.627 434.386Z" fill="#FFDA71"/>
<path d="M512.46 436.428C512.46 436.428 507.27 430.528 513.272 427.734C519.274 424.94 527.783 431.154 519.446 437.365" fill="#FFDA71"/>
<path d="M502.24 497.463H462.678C461.154 497.463 460.578 496.469 459.918 494.704L453.26 472.283C453.26 471.551 453.551 470.849 454.068 470.332C454.586 469.815 455.287 469.524 456.019 469.524H495.581C496.313 469.524 497.015 469.815 497.532 470.332C498.049 470.849 498.34 471.551 498.34 472.283L505 494.7C505.001 495.063 504.929 495.422 504.791 495.757C504.653 496.093 504.449 496.397 504.193 496.654C503.937 496.91 503.632 497.114 503.297 497.253C502.962 497.392 502.603 497.463 502.24 497.463Z" fill="black"/>
<path d="M515.922 494.826H467.622C467.449 494.826 467.277 494.86 467.117 494.926C466.957 494.992 466.812 495.089 466.689 495.212C466.567 495.334 466.47 495.479 466.403 495.639C466.337 495.799 466.303 495.971 466.303 496.144C466.303 496.317 466.337 496.489 466.403 496.649C466.469 496.809 466.567 496.954 466.689 497.077C466.812 497.199 466.957 497.297 467.117 497.363C467.277 497.429 467.449 497.463 467.622 497.463H515.922C516.272 497.463 516.607 497.324 516.855 497.077C517.102 496.829 517.241 496.494 517.241 496.144C517.241 495.794 517.102 495.459 516.854 495.212C516.607 494.965 516.272 494.826 515.922 494.826Z" fill="black"/>
<path d="M173.931 149.05C173.931 149.05 184.381 148.061 189.414 157.05C194.447 166.039 185.28 162.892 191.122 172.24C196.964 181.588 186.547 187.878 173.195 187.878C173.195 179.43 168.717 170.712 168.717 170.712L164.373 167.012C164.373 167.012 160.155 149.05 173.931 149.05Z" fill="#3F55C2"/>
<path d="M216.511 208.64C216.511 208.64 223.875 201.24 228.746 208.64C233.617 216.04 243.646 245.957 243.646 245.957L254.433 251.92H237.133L222.327 223.777L197.944 250.056L181.029 231.896L216.511 208.64Z" fill="#556CD1"/>
<path d="M185.6 230.587L221.947 235.837C221.947 235.837 231.547 238.581 231.031 245.957C230.515 253.333 223.231 284.218 223.231 284.218L226.643 297.189L214.41 283.829L217.737 278.943V251.92L175.537 252.12C175.537 252.12 157.772 253.267 157.772 237.611V230.588C166.703 234.167 176.669 234.167 185.6 230.587Z" fill="#627FE1"/>
<path d="M171.861 176.2C173.093 176.148 174.327 176.242 175.537 176.479V176.47C176.691 176.553 177.829 176.789 178.922 177.17C179.761 177.417 180.576 177.741 181.355 178.139C188.009 181.271 198.649 186.85 203.828 212.711C200.719 213.341 192.45 209.149 187.706 206.029C186.763 218.192 185.606 230.588 185.606 230.588C176.674 234.169 166.705 234.169 157.773 230.588V198.578C157.773 198.578 153.637 221.784 146.206 217.921C138.775 214.058 153.04 176.2 171.861 176.2Z" fill="#FFDA71"/>
<path d="M169.59 192.236C169.59 192.236 148.144 202.959 145.346 210.186C142.548 217.413 146.858 221.262 154.378 216.074C161.898 210.886 171.052 197.188 171.052 197.188L169.59 192.236Z" fill="#FB927A"/>
<path d="M178.862 192.236C178.862 192.236 200.308 202.959 203.105 210.186C205.902 217.413 201.593 221.262 194.074 216.074C186.555 210.886 179.244 198.548 179.244 198.548L178.862 192.236Z" fill="#FB927A"/>
<path d="M173.2 182.864C173.757 182.864 174.309 182.754 174.823 182.541C175.338 182.328 175.806 182.015 176.2 181.622C176.593 181.228 176.906 180.76 177.119 180.245C177.332 179.731 177.442 179.179 177.442 178.622V173.939H168.957V178.622C168.957 179.747 169.404 180.826 170.2 181.622C170.996 182.417 172.075 182.864 173.2 182.864Z" fill="#FB927A"/>
<path d="M182.914 166.046C182.948 166.569 182.775 167.084 182.431 167.479C182.087 167.875 181.601 168.119 181.079 168.158C180.556 168.119 180.071 167.875 179.727 167.48C179.383 167.084 179.21 166.569 179.244 166.046C179.21 165.523 179.384 165.008 179.727 164.613C180.071 164.218 180.557 163.974 181.079 163.935C181.601 163.974 182.087 164.218 182.431 164.613C182.774 165.009 182.948 165.523 182.914 166.046Z" fill="#FB927A"/>
<path d="M167.178 166.046C167.212 166.569 167.039 167.084 166.695 167.479C166.351 167.875 165.865 168.119 165.343 168.158C164.821 168.119 164.335 167.875 163.991 167.479C163.647 167.084 163.474 166.569 163.508 166.046C163.474 165.523 163.648 165.009 163.991 164.613C164.335 164.218 164.821 163.974 165.343 163.935C165.865 163.974 166.351 164.218 166.695 164.613C167.038 165.009 167.212 165.523 167.178 166.046Z" fill="#FB927A"/>
<path d="M182.069 165.531C182.069 165.531 180.702 165.244 180.702 166.587" stroke="#24004A" stroke-width="0.282" stroke-miterlimit="10"/>
<path d="M164.373 165.531C164.373 165.531 165.74 165.244 165.74 166.587" stroke="#24004A" stroke-width="0.282" stroke-miterlimit="10"/>
<path d="M173.211 175.636C171.126 175.63 169.129 174.799 167.654 173.324C166.18 171.85 165.349 169.853 165.343 167.768V162.136C165.349 160.051 166.18 158.054 167.654 156.58C169.129 155.105 171.126 154.274 173.211 154.268C175.296 154.274 177.293 155.105 178.768 156.58C180.242 158.054 181.073 160.051 181.079 162.136V167.768C181.073 169.853 180.242 171.85 178.768 173.324C177.293 174.799 175.296 175.63 173.211 175.636Z" fill="#FDAB95"/>
<path d="M178.173 164.952C178.173 165.552 177.851 166.046 177.453 166.046C177.055 166.046 176.733 165.557 176.733 164.952C176.733 164.347 177.056 163.858 177.453 163.858C177.85 163.858 178.173 164.348 178.173 164.952Z" fill="#24004A"/>
<path d="M169.688 164.952C169.688 165.552 169.366 166.046 168.968 166.046C168.57 166.046 168.248 165.557 168.248 164.952C168.248 164.347 168.571 163.858 168.968 163.858C169.365 163.858 169.688 164.348 169.688 164.952Z" fill="#24004A"/>
<path d="M175.7 169.273C175.397 169.63 175.012 169.91 174.578 170.087C174.145 170.265 173.675 170.335 173.208 170.292C172.741 170.335 172.271 170.265 171.837 170.087C171.404 169.91 171.019 169.63 170.716 169.273" stroke="#24004A" stroke-width="0.282" stroke-miterlimit="10"/>
<path d="M180.392 167.006C180.392 167.183 180.357 167.357 180.29 167.521C180.222 167.684 180.123 167.832 179.999 167.957C179.874 168.081 179.726 168.181 179.563 168.248C179.399 168.316 179.225 168.35 179.048 168.35C178.872 168.35 178.697 168.315 178.534 168.248C178.371 168.18 178.223 168.081 178.098 167.956C177.973 167.831 177.874 167.683 177.807 167.52C177.739 167.357 177.705 167.183 177.705 167.006C177.705 166.83 177.739 166.655 177.807 166.492C177.874 166.329 177.973 166.18 178.098 166.056C178.223 165.931 178.371 165.832 178.534 165.764C178.697 165.697 178.872 165.662 179.048 165.662C179.404 165.662 179.746 165.804 179.998 166.056C180.25 166.308 180.392 166.65 180.392 167.006Z" fill="#FB927A"/>
<path d="M168.717 167.006C168.717 167.363 168.575 167.704 168.323 167.956C168.071 168.208 167.729 168.35 167.373 168.35C167.017 168.35 166.675 168.208 166.423 167.956C166.171 167.704 166.029 167.363 166.029 167.006C166.029 166.65 166.171 166.308 166.423 166.056C166.675 165.804 167.017 165.662 167.373 165.662C167.729 165.662 168.071 165.804 168.323 166.056C168.575 166.308 168.717 166.65 168.717 167.006Z" fill="#FB927A"/>
<path d="M178.173 163.263C177.967 163.104 177.713 163.018 177.453 163.018C177.193 163.018 176.939 163.104 176.733 163.263" stroke="#24004A" stroke-width="0.282" stroke-miterlimit="10"/>
<path d="M172.491 168.041C172.697 168.2 172.951 168.286 173.211 168.286C173.471 168.286 173.725 168.2 173.931 168.041" stroke="#24004A" stroke-width="0.282" stroke-miterlimit="10"/>
<path d="M168.248 163.263C168.454 163.104 168.708 163.018 168.968 163.018C169.228 163.018 169.482 163.104 169.688 163.263" stroke="#24004A" stroke-width="0.282" stroke-miterlimit="10"/>
<path d="M182.069 164.273C182.069 164.273 175.231 165.041 166.546 156.765C176.048 147.978 186.025 154.637 182.069 164.273Z" fill="#3F55C2"/>
<path d="M171.155 200.259H177.533C178.478 200.259 179.244 199.493 179.244 198.548V185.925C179.244 184.98 178.478 184.214 177.533 184.214H171.155C170.21 184.214 169.444 184.98 169.444 185.925V198.548C169.444 199.493 170.21 200.259 171.155 200.259Z" fill="#24004A"/>
<path d="M180.317 193.042C180.317 193.042 180.632 190.049 179.229 188.213V192.466C179.229 192.466 177.129 193.377 173.609 190.674C170.568 188.34 168.145 198.201 179.229 198.542" fill="#FB927A"/>
<path d="M169.444 194.378V187.878C168.399 189.901 167.761 192.109 167.567 194.378" fill="#FB927A"/>
<path d="M243.65 245.957L234.43 246.773L235.63 251.919H254.439L243.65 245.957Z" fill="#3F55C2"/>
<path d="M223.229 284.218L217.735 278.943L214.408 283.829L226.64 297.189L223.229 284.218Z" fill="#3F55C2"/>
<path d="M581.286 311.532L540.005 317.494C540.005 317.494 528.444 319.494 530.905 330.946C533.366 342.398 537.195 360.213 537.195 360.213L527.064 365.252H542.642V330.946H569.242C569.242 330.946 581.286 329.949 581.286 311.532Z" fill="#556CD1"/>
<path d="M575.7 313.181C575.238 313.236 576.215 313.134 575.7 313.181V313.181Z" fill="#FB927A"/>
<path d="M586.722 276.1C583.722 269.645 577.136 271.829 576.286 279C575.686 284.091 574.144 298.064 574.144 298.064C566.88 300.353 559.797 303.182 552.955 306.528L554.809 309.743C554.809 309.743 569.52 308.531 576.816 306.002C582.716 303.956 583.251 302.018 583.993 299.323C585.572 293.582 588.96 280.911 586.722 276.1Z" fill="#FB927A"/>
<path d="M607.985 315.354V281.309C607.985 262.721 589.053 266.223 589.053 266.223C589.053 266.223 575.702 265.852 576.435 282.874C576.922 293.441 578.17 303.959 580.169 314.347C580.169 314.347 590.617 319.656 607.969 316.815C608.004 316.329 608.009 315.841 607.985 315.354Z" fill="#FDC03D"/>
<path d="M580.169 314.347L557.796 317.578C556.374 317.783 555.008 318.277 553.783 319.027C552.558 319.778 551.498 320.771 550.669 321.944C549.84 323.118 549.259 324.449 548.962 325.854C548.664 327.26 548.656 328.712 548.938 330.121L554.961 360.213L545.927 365.252H561.505L559.174 331.194C559.174 331.194 571.984 331.394 590.574 331.394C605.703 331.394 607.74 320.766 607.974 316.81C590.617 319.656 580.169 314.347 580.169 314.347Z" fill="#627FE1"/>
<path d="M597.783 312.689C597.328 312.784 598.291 312.596 597.783 312.689V312.689Z" fill="#FB927A"/>
<path d="M605.448 274.769C601.882 268.608 595.519 271.369 595.313 278.585C595.166 283.71 594.883 297.764 594.883 297.764C587.822 300.709 580.991 304.175 574.445 308.134L576.67 311.125C576.67 311.125 591.213 308.603 598.253 305.431C603.946 302.866 604.307 300.889 604.805 298.138C605.865 292.286 608.107 279.363 605.448 274.769Z" fill="#FB927A"/>
<path d="M590.577 270.521C589.626 270.521 588.714 270.143 588.042 269.47C587.37 268.798 586.992 267.886 586.992 266.935V262.977H594.163V266.935C594.163 267.886 593.785 268.798 593.113 269.471C592.44 270.143 591.528 270.521 590.577 270.521Z" fill="#FB927A"/>
<path d="M582.371 256.307C582.342 256.749 582.489 257.184 582.78 257.518C583.07 257.853 583.48 258.059 583.922 258.092C584.363 258.059 584.774 257.853 585.064 257.518C585.355 257.184 585.502 256.749 585.473 256.307C585.502 255.865 585.355 255.43 585.065 255.095C584.774 254.761 584.364 254.555 583.922 254.522C583.48 254.555 583.07 254.761 582.78 255.096C582.489 255.43 582.342 255.865 582.371 256.307Z" fill="#FB927A"/>
<path d="M595.671 256.307C595.642 256.749 595.789 257.184 596.08 257.518C596.37 257.853 596.78 258.059 597.222 258.092C597.663 258.059 598.074 257.853 598.364 257.518C598.655 257.184 598.802 256.749 598.773 256.307C598.802 255.865 598.655 255.43 598.365 255.095C598.074 254.761 597.664 254.555 597.222 254.522C596.78 254.555 596.37 254.761 596.08 255.096C595.789 255.43 595.642 255.865 595.671 256.307Z" fill="#FB927A"/>
<path d="M583.086 255.871C583.086 255.871 584.241 255.628 584.241 256.764" stroke="#24004A" stroke-width="0.282" stroke-miterlimit="10"/>
<path d="M598.042 255.871C598.042 255.871 596.887 255.628 596.887 256.764" stroke="#24004A" stroke-width="0.282" stroke-miterlimit="10"/>
<path d="M597.222 253.002C597.222 249.329 594.245 246.352 590.572 246.352C586.899 246.352 583.922 249.329 583.922 253.002V257.762C583.922 261.435 586.899 264.412 590.572 264.412C594.245 264.412 597.222 261.435 597.222 257.762V253.002Z" fill="#FDAB95"/>
<path d="M586.378 255.382C586.378 255.893 586.65 256.307 586.987 256.307C587.324 256.307 587.595 255.893 587.595 255.382C587.595 254.871 587.323 254.457 586.987 254.457C586.651 254.457 586.378 254.871 586.378 255.382Z" fill="#24004A"/>
<path d="M593.55 255.382C593.55 255.893 593.822 256.307 594.158 256.307C594.494 256.307 594.767 255.893 594.767 255.382C594.767 254.871 594.494 254.457 594.158 254.457C593.822 254.457 593.55 254.871 593.55 255.382Z" fill="#24004A"/>
<path d="M588.466 259.034C588.722 259.336 589.047 259.572 589.414 259.722C589.78 259.872 590.178 259.931 590.572 259.895C590.967 259.931 591.364 259.872 591.731 259.722C592.097 259.572 592.423 259.336 592.679 259.034" stroke="#24004A" stroke-width="0.282" stroke-miterlimit="10"/>
<path d="M584.5 257.118C584.5 257.419 584.62 257.708 584.833 257.921C585.046 258.134 585.335 258.254 585.636 258.254C585.937 258.254 586.226 258.134 586.439 257.921C586.652 257.708 586.772 257.419 586.772 257.118C586.772 256.817 586.652 256.528 586.439 256.315C586.226 256.102 585.937 255.982 585.636 255.982C585.335 255.982 585.046 256.102 584.833 256.315C584.62 256.528 584.5 256.817 584.5 257.118Z" fill="#FB927A"/>
<path d="M594.37 257.118C594.37 257.419 594.49 257.708 594.703 257.921C594.916 258.134 595.205 258.254 595.506 258.254C595.807 258.254 596.096 258.134 596.309 257.921C596.522 257.708 596.642 257.419 596.642 257.118C596.642 256.817 596.522 256.528 596.309 256.315C596.096 256.102 595.807 255.982 595.506 255.982C595.205 255.982 594.916 256.102 594.703 256.315C594.49 256.528 594.37 256.817 594.37 257.118Z" fill="#FB927A"/>
<path d="M586.378 253.954C586.553 253.82 586.766 253.748 586.987 253.748C587.207 253.748 587.42 253.82 587.595 253.954" stroke="#24004A" stroke-width="0.282" stroke-miterlimit="10"/>
<path d="M591.181 257.992C591.006 258.126 590.793 258.198 590.573 258.198C590.352 258.198 590.139 258.126 589.964 257.992" stroke="#24004A" stroke-width="0.282" stroke-miterlimit="10"/>
<path d="M594.767 253.954C594.592 253.82 594.379 253.748 594.159 253.748C593.938 253.748 593.725 253.82 593.55 253.954" stroke="#24004A" stroke-width="0.282" stroke-miterlimit="10"/>
<path d="M590.572 244.4C581.099 240.981 577.56 249.262 581.131 250.553C579.767 255.507 583.922 255.378 583.922 255.378C584.235 253.427 585.249 251.657 586.774 250.401C586.774 250.401 585.461 252.984 588.466 252.984C591.471 252.984 592.678 248.958 592.678 248.958C592.678 248.958 595.336 255.339 598.042 254.793C601.5 246.586 594.6 242.471 590.572 244.4Z" fill="#FFDA71"/>
<path d="M574.445 308.134C574.445 308.134 569.132 310.87 568.245 314.813H573.82C574.625 314.58 575.334 314.097 575.846 313.434C576.358 312.771 576.646 311.962 576.667 311.125" fill="#FB927A"/>
<path d="M571.868 317.746H538.431C537.143 317.746 536.652 316.906 536.099 315.414L530.47 296.464C530.47 295.846 530.716 295.252 531.154 294.815C531.591 294.378 532.184 294.132 532.803 294.132H566.24C566.858 294.132 567.452 294.378 567.889 294.815C568.326 295.252 568.572 295.846 568.572 296.464L574.2 315.414C574.2 316.033 573.954 316.626 573.517 317.063C573.08 317.5 572.486 317.746 571.868 317.746Z" fill="black"/>
<path d="M583.432 315.517H542.608C542.313 315.517 542.029 315.634 541.82 315.843C541.611 316.052 541.494 316.336 541.494 316.631C541.494 316.927 541.611 317.21 541.82 317.419C542.029 317.628 542.312 317.746 542.608 317.746H583.432C583.728 317.746 584.011 317.629 584.22 317.419C584.43 317.21 584.547 316.927 584.547 316.631C584.547 316.336 584.429 316.052 584.22 315.843C584.011 315.634 583.728 315.517 583.432 315.517Z" fill="black"/>
<path d="M537.195 360.213H542.642V365.252H527.064L537.195 360.213Z" fill="#3F55C2"/>
<path d="M545.927 365.252L554.961 360.213H561.161L561.506 365.252H545.927Z" fill="#3F55C2"/>
<path d="M358.182 401.009C358.182 401.009 357.637 396.42 358.659 393.377C359.681 390.334 356.621 389.994 359.059 386.645C362.651 381.701 372.759 381.798 375.306 390.108C377.853 398.418 375.306 402.368 375.306 402.368L358.182 401.009Z" fill="#3F55C2"/>
<path d="M387.64 471.282C384.409 464.251 382.86 451.776 381.86 435.255C390.909 461.423 396.39 457.988 398.983 455.736C401.576 453.484 400.304 445.657 393.625 427.567C386.946 409.477 372.811 410.577 372.811 410.577H363.976C363.976 410.577 349.841 409.477 343.162 427.567C336.483 445.657 335.212 453.483 337.804 455.736C340.396 457.989 345.877 461.423 354.926 435.255C353.926 451.832 352.367 464.339 349.114 471.355C349.114 471.355 365.352 480.3 387.64 471.282Z" fill="#627FE1"/>
<path d="M420.269 477.655C419.114 468.082 392.069 470.776 387.64 471.282C365.352 480.303 349.114 471.357 349.114 471.357C349.114 471.357 317.114 467.228 315.856 477.657C314.607 488.011 336.593 495.168 367.732 495.269H368.063H368.393C399.532 495.166 421.518 488.009 420.269 477.655Z" fill="#FFDA71"/>
<path d="M361.617 488.532L328.29 475.5C328.29 475.5 317.966 469.867 315.856 477.66C313.746 485.453 318.494 491.231 360.003 496.167L382.686 500.907L367.658 489.083L361.617 488.532Z" fill="#FB927A"/>
<path d="M376.756 494.578L406.805 475.144C406.805 475.144 415.796 467.561 419.42 474.775C423.044 481.989 419.548 488.599 379.863 501.73L358.585 510.909L370.946 496.32L376.756 494.578Z" fill="#FB927A"/>
<path d="M372.447 430.51C372.447 430.51 395.003 441.919 397.8 449.145C400.597 456.371 396.288 460.222 388.768 455.033C381.248 449.844 372.094 436.147 372.094 436.147L372.447 430.51Z" fill="#FB927A"/>
<path d="M362.023 431.2C362.023 431.2 340.577 441.924 337.779 449.15C334.981 456.376 339.292 460.227 346.811 455.038C354.33 449.849 363.485 436.152 363.485 436.152L362.023 431.2Z" fill="#FB927A"/>
<path d="M367.234 416.957C366.109 416.957 365.03 416.51 364.234 415.714C363.439 414.918 362.992 413.839 362.992 412.714V408.032H371.477V412.714C371.477 413.271 371.367 413.823 371.154 414.338C370.941 414.852 370.628 415.32 370.234 415.714C369.84 416.108 369.373 416.421 368.858 416.634C368.343 416.847 367.791 416.957 367.234 416.957Z" fill="#FB927A"/>
<path d="M357.525 400.139C357.491 400.662 357.665 401.177 358.009 401.573C358.353 401.968 358.839 402.212 359.361 402.251C359.883 402.212 360.369 401.968 360.713 401.572C361.056 401.177 361.23 400.662 361.196 400.139C361.23 399.616 361.056 399.101 360.713 398.706C360.369 398.31 359.883 398.067 359.361 398.027C358.839 398.066 358.353 398.31 358.009 398.706C357.665 399.101 357.491 399.616 357.525 400.139Z" fill="#FB927A"/>
<path d="M373.261 400.139C373.227 400.662 373.401 401.177 373.744 401.572C374.088 401.968 374.574 402.212 375.096 402.251C375.618 402.212 376.104 401.968 376.448 401.573C376.792 401.177 376.965 400.662 376.931 400.139C376.965 399.616 376.792 399.101 376.448 398.706C376.104 398.31 375.618 398.066 375.096 398.027C374.574 398.067 374.088 398.31 373.744 398.706C373.401 399.101 373.227 399.616 373.261 400.139Z" fill="#FB927A"/>
<path d="M358.37 399.624C358.37 399.624 359.737 399.336 359.737 400.68" stroke="#24004A" stroke-width="0.282" stroke-miterlimit="10"/>
<path d="M376.066 399.624C376.066 399.624 374.699 399.336 374.699 400.68" stroke="#24004A" stroke-width="0.282" stroke-miterlimit="10"/>
<path d="M367.228 409.728C369.313 409.722 371.31 408.892 372.785 407.417C374.259 405.943 375.09 403.946 375.096 401.861V396.229C375.09 394.144 374.259 392.146 372.785 390.672C371.311 389.198 369.313 388.367 367.228 388.361C365.143 388.367 363.146 389.198 361.672 390.672C360.198 392.147 359.367 394.144 359.361 396.229V401.861C359.367 403.946 360.198 405.943 361.672 407.417C363.146 408.891 365.143 409.722 367.228 409.728Z" fill="#FDAB95"/>
<path d="M362.266 399.045C362.266 399.645 362.588 400.139 362.986 400.139C363.384 400.139 363.706 399.649 363.706 399.045C363.706 398.441 363.384 397.95 362.986 397.95C362.588 397.95 362.266 398.44 362.266 399.045Z" fill="#24004A"/>
<path d="M370.751 399.045C370.751 399.645 371.073 400.139 371.471 400.139C371.869 400.139 372.191 399.649 372.191 399.045C372.191 398.441 371.869 397.95 371.471 397.95C371.073 397.95 370.751 398.44 370.751 399.045Z" fill="#24004A"/>
<path d="M364.736 403.366C365.039 403.723 365.424 404.002 365.858 404.179C366.291 404.356 366.761 404.427 367.228 404.384C367.695 404.427 368.165 404.357 368.598 404.179C369.032 404.002 369.417 403.723 369.72 403.366" stroke="#24004A" stroke-width="0.282" stroke-miterlimit="10"/>
<path d="M360.047 401.1C360.047 401.457 360.189 401.798 360.441 402.05C360.693 402.302 361.035 402.444 361.391 402.444C361.747 402.444 362.089 402.302 362.341 402.05C362.593 401.798 362.735 401.457 362.735 401.1C362.735 400.744 362.593 400.402 362.341 400.15C362.089 399.898 361.747 399.756 361.391 399.756C361.035 399.756 360.693 399.898 360.441 400.15C360.189 400.402 360.047 400.744 360.047 401.1Z" fill="#FB927A"/>
<path d="M371.722 401.1C371.722 401.457 371.864 401.798 372.116 402.05C372.368 402.302 372.71 402.444 373.066 402.444C373.422 402.444 373.764 402.302 374.016 402.05C374.268 401.798 374.41 401.457 374.41 401.1C374.41 400.744 374.268 400.402 374.016 400.15C373.764 399.898 373.422 399.756 373.066 399.756C372.71 399.756 372.368 399.898 372.116 400.15C371.864 400.402 371.722 400.744 371.722 401.1Z" fill="#FB927A"/>
<path d="M362.266 397.355C362.472 397.196 362.726 397.11 362.986 397.11C363.246 397.11 363.5 397.196 363.706 397.355" stroke="#24004A" stroke-width="0.282" stroke-miterlimit="10"/>
<path d="M367.948 402.134C367.741 402.292 367.488 402.378 367.228 402.378C366.968 402.378 366.715 402.292 366.508 402.134" stroke="#24004A" stroke-width="0.282" stroke-miterlimit="10"/>
<path d="M372.191 397.355C371.985 397.196 371.731 397.11 371.471 397.11C371.211 397.11 370.957 397.196 370.751 397.355" stroke="#24004A" stroke-width="0.282" stroke-miterlimit="10"/>
<path d="M358.37 389.6C358.37 389.6 364.234 395.367 375.096 393.051C371.655 384.465 360.162 388.144 358.37 389.6Z" fill="#3F55C2"/>
<path d="M371.138 422.076H364.76C363.815 422.076 363.049 422.842 363.049 423.787V436.41C363.049 437.355 363.815 438.121 364.76 438.121H371.138C372.083 438.121 372.849 437.355 372.849 436.41V423.787C372.849 422.842 372.083 422.076 371.138 422.076Z" fill="#F6F9FF"/>
<path d="M361.961 431.21C361.961 431.21 361.646 428.218 363.049 426.382V430.635C363.049 430.635 365.149 431.546 368.668 428.843C371.71 426.509 374.133 436.37 363.049 436.711" fill="#FB927A"/>
<path d="M370.946 496.32L376.756 494.578L374.699 503.958L358.585 510.909L370.946 496.32Z" fill="#3F55C2"/>
<path d="M372.79 504.781L376.29 494.717L379.473 492.817L378.198 502.739L372.79 504.781Z" fill="white"/>
<path d="M361.617 488.532L366.733 497.568L382.685 500.902L369.72 489.264L361.617 488.532Z" fill="#3F55C2"/>
<path d="M361.617 488.532L358.249 487.214L362.718 496.728L368.393 497.914L361.617 488.532Z" fill="white"/>
<path d="M103.884 418.738H129.348V377.323H103.884V418.738Z" fill="url(#paint30_radial)"/>
<path d="M171.281 423.943H61.112V423.696C61.112 422.604 61.3271 421.523 61.745 420.514C62.163 419.505 62.7755 418.588 63.5477 417.816C65.1073 416.256 67.2225 415.38 69.428 415.38H162.965C165.171 415.38 167.286 416.256 168.845 417.816C170.405 419.375 171.281 421.491 171.281 423.696V423.943Z" fill="url(#paint31_radial)"/>
<path d="M24.106 401.656H208.286C211.17 401.656 213.508 399.318 213.508 396.434L213.508 259.222C213.508 256.338 211.17 254 208.286 254L24.106 254C21.222 254 18.884 256.338 18.884 259.222L18.884 396.434C18.884 399.318 21.222 401.656 24.106 401.656Z" fill="url(#paint32_radial)"/>
<path d="M26.288 380.162H206.104L206.104 261.158H26.288L26.288 380.162Z" fill="#EFE6F5"/>
<path d="M109.694 391.57C109.86 392.424 110.193 393.237 110.673 393.962C111.154 394.688 111.772 395.311 112.494 395.797C113.215 396.284 114.026 396.623 114.878 396.796C115.731 396.969 116.609 396.972 117.463 396.806C118.317 396.64 119.13 396.307 119.855 395.827C120.58 395.346 121.204 394.728 121.69 394.006C122.176 393.285 122.515 392.475 122.689 391.623C122.862 390.77 122.865 389.892 122.699 389.038C122.533 388.184 122.2 387.371 121.719 386.646C121.239 385.92 120.62 385.297 119.899 384.811C119.178 384.325 118.367 383.985 117.515 383.812C116.662 383.639 115.784 383.636 114.93 383.802C114.076 383.968 113.263 384.301 112.538 384.782C111.813 385.262 111.189 385.88 110.703 386.602C110.217 387.323 109.878 388.133 109.704 388.985C109.531 389.838 109.528 390.716 109.694 391.57Z" fill="#FBFBFD"/>
<path opacity="0.57" d="M26.302 380.162H206.077V360.813H26.302V380.162Z" fill="white"/>
<path d="M155.415 332.618H172.468C172.468 332.618 174.228 328.608 172.787 325.242C171.346 321.876 171.795 317.542 165.587 317.542C159.379 317.542 152.049 322.042 155.415 332.618Z" fill="#FFDA71"/>
<path d="M187.508 509.59C187.508 509.59 186.947 444.812 182.143 399.614H142.9C142.156 410.228 141.508 423.066 141.508 435.643C141.508 465.222 140.265 509.111 140.265 509.111L129.604 515.074H146.904L162.649 414.63L181 515.074H198.3L187.508 509.59Z" fill="#3F55C2"/>
<path d="M181.3 392.223C180.407 385.005 179.387 378.478 178.222 373.053L182.795 391.865L191.544 389.765C189.968 378.515 188.107 366.79 186.27 358.874C182.54 346.141 168.31 345.052 168.31 345.052H163.892C163.892 345.052 146.231 341.464 139.176 360.727C132.121 379.99 131.147 388.183 134.241 390.871C137.335 393.559 145.094 374.994 145.094 374.994C145.094 374.994 143.912 385.268 142.906 399.615C155.89 401.86 169.164 401.86 182.148 399.615C181.879 397.086 181.596 394.615 181.3 392.224" fill="#FDC03D"/>
<path d="M182.79 391.865L184.675 399.614L190.289 422.708H195.655C195.655 422.708 193.923 406.781 191.539 389.764L182.79 391.865Z" fill="#FB927A"/>
<path d="M163.956 350.53C162.831 350.53 161.752 350.083 160.956 349.287C160.16 348.491 159.713 347.412 159.713 346.287V341.604H168.198V346.287C168.198 347.412 167.751 348.491 166.956 349.287C166.16 350.083 165.081 350.53 163.956 350.53Z" fill="#FB927A"/>
<path d="M154.247 333.712C154.213 334.235 154.386 334.75 154.73 335.146C155.074 335.541 155.56 335.785 156.082 335.824C156.604 335.785 157.09 335.541 157.434 335.145C157.777 334.75 157.951 334.235 157.917 333.712C157.951 333.189 157.777 332.674 157.434 332.279C157.09 331.883 156.604 331.64 156.082 331.6C155.56 331.639 155.074 331.883 154.73 332.279C154.386 332.674 154.213 333.189 154.247 333.712Z" fill="#FB927A"/>
<path d="M169.982 333.712C169.948 334.235 170.122 334.75 170.466 335.146C170.809 335.541 171.295 335.785 171.818 335.824C172.34 335.785 172.826 335.541 173.17 335.145C173.513 334.75 173.687 334.235 173.653 333.712C173.687 333.189 173.514 332.674 173.17 332.279C172.826 331.883 172.34 331.639 171.818 331.6C171.295 331.639 170.809 331.883 170.466 332.279C170.122 332.674 169.948 333.189 169.982 333.712Z" fill="#FB927A"/>
<path d="M156.458 334.253C156.458 332.909 155.092 333.197 155.092 333.197" stroke="#24004A" stroke-width="0.282" stroke-miterlimit="10"/>
<path d="M172.787 333.2C172.787 333.2 171.421 332.912 171.421 334.256" stroke="#24004A" stroke-width="0.282" stroke-miterlimit="10"/>
<path d="M163.95 343.3C166.035 343.294 168.032 342.463 169.506 340.989C170.981 339.515 171.812 337.518 171.818 335.433V329.801C171.812 327.716 170.981 325.718 169.507 324.244C168.033 322.77 166.035 321.939 163.95 321.933C161.865 321.939 159.867 322.77 158.393 324.244C156.919 325.718 156.088 327.716 156.082 329.801V335.433C156.088 337.518 156.919 339.515 158.393 340.99C159.867 342.464 161.865 343.294 163.95 343.3Z" fill="#FDAB95"/>
<path d="M158.987 332.618C158.987 333.218 159.31 333.712 159.707 333.712C160.104 333.712 160.427 333.222 160.427 332.618C160.427 332.014 160.105 331.523 159.707 331.523C159.309 331.523 158.987 332.013 158.987 332.618Z" fill="#24004A"/>
<path d="M167.472 332.618C167.472 333.218 167.795 333.712 168.192 333.712C168.589 333.712 168.912 333.222 168.912 332.618C168.912 332.014 168.59 331.523 168.192 331.523C167.794 331.523 167.472 332.013 167.472 332.618Z" fill="#24004A"/>
<path d="M161.458 337.448C161.761 337.805 162.146 338.085 162.579 338.262C163.013 338.439 163.483 338.51 163.95 338.467C164.417 338.51 164.887 338.439 165.32 338.262C165.754 338.085 166.139 337.805 166.442 337.448" fill="white"/>
<path d="M158.112 336.016C158.854 336.016 159.456 335.414 159.456 334.672C159.456 333.93 158.854 333.328 158.112 333.328C157.37 333.328 156.768 333.93 156.768 334.672C156.768 335.414 157.37 336.016 158.112 336.016Z" fill="#FB927A"/>
<path d="M168.443 334.672C168.443 335.029 168.585 335.37 168.837 335.622C169.089 335.874 169.431 336.016 169.787 336.016C170.143 336.016 170.485 335.874 170.737 335.622C170.989 335.37 171.131 335.029 171.131 334.672C171.131 334.316 170.989 333.974 170.737 333.722C170.485 333.47 170.143 333.328 169.787 333.328C169.431 333.328 169.089 333.47 168.837 333.722C168.585 333.974 168.443 334.316 168.443 334.672Z" fill="#FB927A"/>
<path d="M158.987 330.928C159.193 330.769 159.447 330.683 159.707 330.683C159.968 330.683 160.221 330.769 160.427 330.928" stroke="#24004A" stroke-width="0.282" stroke-miterlimit="10"/>
<path d="M164.67 335.707C164.463 335.865 164.21 335.951 163.95 335.951C163.69 335.951 163.437 335.865 163.23 335.707" stroke="#24004A" stroke-width="0.282" stroke-miterlimit="10"/>
<path d="M168.912 330.928C168.706 330.769 168.452 330.683 168.192 330.683C167.932 330.683 167.678 330.769 167.472 330.928" stroke="#24004A" stroke-width="0.282" stroke-miterlimit="10"/>
<path d="M158.008 366.255C158.008 366.255 136.561 376.978 133.764 384.205C130.967 391.432 135.276 395.281 142.795 390.093C150.314 384.905 159.469 371.207 159.469 371.207L158.008 366.255Z" fill="#FB927A"/>
<path d="M156.082 325.078C156.082 325.078 164.572 329.018 171.818 325.078C166.651 317.586 158.695 321.048 156.082 325.078Z" fill="#FFDA71"/>
<path d="M166.419 356.721H160.041C159.096 356.721 158.33 357.487 158.33 358.432V371.055C158.33 372 159.096 372.766 160.041 372.766H166.419C167.364 372.766 168.13 372 168.13 371.055V358.432C168.13 357.487 167.364 356.721 166.419 356.721Z" fill="#7675F4"/>
<path d="M157.228 367.266C157.228 367.266 156.913 364.274 158.316 362.437V366.691C158.316 366.691 160.416 367.602 163.936 364.899C166.977 362.565 169.4 372.426 158.316 372.766" fill="#FB927A"/>
<path d="M190.289 422.708C190.289 422.708 188.4 430.334 189.889 432.52C191.181 433.315 191.38 428.446 191.38 428.446C192.433 429.972 193.251 431.647 193.807 433.415C194.644 436.396 198.149 437.489 198.293 431.527C198.437 425.565 195.653 422.708 195.653 422.708H190.289Z" fill="#FB927A"/>
<path d="M140.266 509.111L129.605 515.073H146.905L147.919 509.111H140.266Z" fill="#556CD1"/>
<path d="M179.974 509.111L187.49 507.902L198.29 515.074H181L179.974 509.111Z" fill="#556CD1"/>
<path d="M100.477 390.962C97.0231 384.999 92.539 383.129 88.522 383.987C89.722 388.043 91.362 393.966 93.161 401.444L100.477 390.962Z" fill="url(#paint33_radial)"/>
<path d="M87.865 384.154C83.37 385.462 79.59 390.18 78.712 396.302L92.512 401.661C90.712 394.151 89.062 388.211 87.865 384.154Z" fill="url(#paint34_radial)"/>
<path d="M96.354 419.224L85.254 417.009C89.113 426.298 84.897 428.87 81.354 435.672L99.905 439.616C98.8 432.3 97.586 425.469 96.354 419.224Z" fill="url(#paint35_radial)"/>
<path d="M100.545 439.364L107.701 432.183C107.439 426.592 107.721 418.941 106.201 409.655L97.014 419.081C98.242 425.3 99.445 432.088 100.545 439.364Z" fill="url(#paint36_radial)"/>
<path d="M103.346 461.584L120.846 446.947C119.422 444.367 117.313 442.772 114.562 442.647C109.315 442.414 108.114 439.027 107.748 433.092L100.667 440.192C101.676 446.939 102.589 454.091 103.346 461.584Z" fill="url(#paint37_radial)"/>
<path d="M104.872 481.006L120.549 471.027C123.666 461.91 123.742 452.913 121.164 447.567L103.429 462.397C104.023 468.4 104.514 474.612 104.872 481.006Z" fill="url(#paint38_radial)"/>
<path d="M96.855 418.275L106.064 408.826C105.373 404.823 104.391 400.875 103.125 397.015C102.527 395.151 101.765 393.344 100.846 391.615L93.3719 402.323C94.4999 407.067 95.686 412.409 96.855 418.275Z" fill="url(#paint39_radial)"/>
<path d="M92.709 402.463L78.6251 396.995C78.2017 401.734 79.3449 406.482 81.8791 410.509C83.008 412.36 84.0231 414.278 84.919 416.252L96.21 418.504C95.035 412.6 93.844 407.227 92.709 402.463Z" fill="url(#paint40_radial)"/>
<path d="M100.006 440.331L81.0251 436.297C79.2203 439.998 78.1243 444.003 77.794 448.107C77.5656 450.575 77.6422 453.062 78.022 455.512L102.686 461.79C101.929 454.271 101.015 447.094 100.006 440.331Z" fill="url(#paint41_radial)"/>
<path d="M88.1 478.3C89.8729 480.816 91.772 483.241 93.79 485.566C95.0084 486.975 96.5275 488.092 98.2352 488.835C99.943 489.578 101.796 489.929 103.657 489.86C103.973 489.848 104.285 489.811 104.597 489.776C104.503 487.109 104.385 484.473 104.243 481.868L88.1 478.3Z" fill="url(#paint42_radial)"/>
<path d="M102.759 462.508L78.137 456.24C79.477 464.086 83.467 471.563 87.527 477.485L104.202 481.171C103.845 474.758 103.355 468.523 102.759 462.508Z" fill="url(#paint43_radial)"/>
<path d="M104.914 481.782C105.055 484.39 105.174 487.026 105.269 489.689C108.237 489.212 110.923 487.652 112.807 485.31C115.951 481.313 118.439 476.843 120.18 472.065L104.914 481.782Z" fill="url(#paint44_radial)"/>
<path opacity="0.47" d="M96.855 418.275C95.686 412.409 94.5019 407.067 93.3719 402.325L93.155 402.636L92.709 402.463C93.844 407.227 95.035 412.601 96.209 418.504L96.561 418.574L96.855 418.275Z" fill="#F37021"/>
<path opacity="0.47" d="M104.872 481.006C104.514 474.612 104.023 468.396 103.429 462.397L103.171 462.613L102.759 462.513C103.359 468.528 103.845 474.763 104.202 481.176L104.502 481.243L104.872 481.006Z" fill="#F37021"/>
<path opacity="0.47" d="M100.545 439.364C99.445 432.088 98.245 425.296 97.015 419.081L96.791 419.311L96.354 419.224C97.586 425.469 98.7949 432.298 99.8979 439.616L100.225 439.685L100.545 439.364Z" fill="#F37021"/>
<path opacity="0.47" d="M103.346 461.584C102.589 454.091 101.676 446.939 100.67 440.198L100.444 440.425L100.006 440.331C101.015 447.094 101.929 454.271 102.686 461.79L103.003 461.871L103.346 461.584Z" fill="#F37021"/>
<path opacity="0.47" d="M104.634 481.96L104.24 481.873C104.381 484.481 104.499 487.117 104.594 489.781C104.82 489.755 105.045 489.726 105.269 489.689C105.175 487.022 105.057 484.387 104.914 481.782L104.634 481.96Z" fill="#F37021"/>
<path opacity="0.47" d="M92.905 401.812L93.161 401.444C91.361 393.966 89.718 388.044 88.522 383.987C88.301 384.034 88.082 384.087 87.865 384.154C89.065 388.211 90.712 394.154 92.517 401.661L92.905 401.812Z" fill="#F37021"/>
<path opacity="0.47" d="M92.517 401.661L78.717 396.302C78.6837 396.531 78.6547 396.762 78.63 396.995L92.714 402.463C92.645 402.194 92.581 401.926 92.517 401.661Z" fill="#F37021"/>
<path opacity="0.47" d="M93.3719 402.325L100.846 391.617C100.725 391.392 100.601 391.176 100.477 390.962L93.161 401.444C93.231 401.734 93.2999 402.03 93.3719 402.325Z" fill="#F37021"/>
<path opacity="0.47" d="M93.3719 402.325C93.3019 402.03 93.231 401.734 93.161 401.444L92.905 401.812L92.517 401.661C92.581 401.926 92.645 402.194 92.709 402.461L93.155 402.634L93.3719 402.325Z" fill="#F37021"/>
<path opacity="0.47" d="M96.21 418.5L84.9189 416.248C85.0319 416.502 85.15 416.761 85.252 417.005L96.3521 419.22C96.3061 418.982 96.258 418.744 96.21 418.5Z" fill="#F37021"/>
<path opacity="0.47" d="M97.015 419.081L106.202 409.655C106.157 409.379 106.113 409.104 106.064 408.826L96.855 418.275C96.908 418.543 96.962 418.81 97.015 419.081Z" fill="#F37021"/>
<path opacity="0.47" d="M97.015 419.081C96.962 418.81 96.908 418.543 96.855 418.275L96.562 418.575L96.21 418.505C96.258 418.745 96.31 418.983 96.354 419.225L96.791 419.312L97.015 419.081Z" fill="#F37021"/>
<path opacity="0.47" d="M99.9 439.616L81.349 435.672C81.241 435.879 81.133 436.082 81.027 436.297L100.008 440.331L99.9 439.616Z" fill="#F37021"/>
<path opacity="0.47" d="M100.67 440.2L107.751 433.1C107.732 432.8 107.716 432.5 107.701 432.189L100.545 439.37C100.587 439.642 100.629 439.919 100.67 440.2Z" fill="#F37021"/>
<path opacity="0.47" d="M100.67 440.2C100.629 439.921 100.587 439.644 100.545 439.366L100.225 439.687L99.8979 439.618L100.006 440.333L100.444 440.427L100.67 440.2Z" fill="#F37021"/>
<path opacity="0.47" d="M103.429 462.4L121.164 447.57C121.064 447.359 120.964 447.15 120.849 446.95L103.349 461.587C103.373 461.856 103.4 462.125 103.429 462.4Z" fill="#F37021"/>
<path opacity="0.47" d="M102.686 461.79L78.022 455.512C78.058 455.755 78.096 455.997 78.137 456.24L102.759 462.508C102.736 462.267 102.71 462.03 102.686 461.79Z" fill="#F37021"/>
<path opacity="0.47" d="M103.429 462.4C103.402 462.128 103.373 461.859 103.346 461.587L103.003 461.874L102.686 461.793C102.71 462.033 102.736 462.27 102.759 462.511L103.171 462.611L103.429 462.4Z" fill="#F37021"/>
<path opacity="0.47" d="M104.914 481.782L120.18 472.065C120.307 471.719 120.431 471.373 120.549 471.027L104.872 481.006C104.886 481.264 104.9 481.523 104.914 481.782Z" fill="#F37021"/>
<path opacity="0.47" d="M104.2 481.171L87.525 477.485C87.715 477.762 87.905 478.035 88.095 478.305L104.238 481.873C104.227 481.639 104.215 481.405 104.2 481.171Z" fill="#F37021"/>
<path opacity="0.47" d="M104.507 481.238L104.207 481.171C104.22 481.405 104.232 481.638 104.245 481.871L104.639 481.958L104.919 481.78C104.905 481.521 104.891 481.262 104.877 481.004L104.507 481.238Z" fill="#F37021"/>
<path d="M113.715 485.715C113.715 485.715 96.6511 436.848 115.161 422.625C133.671 408.402 127.192 505.632 113.715 485.715Z" fill="url(#paint45_radial)"/>
<path d="M118.49 487.64C118.49 487.64 115.537 447.647 132.245 440.723C148.953 433.799 124.574 505.25 118.49 487.64Z" fill="url(#paint46_radial)"/>
<path d="M375.75 304.768C375.762 303.066 375.173 301.414 374.086 300.104L359.569 283.462C358.918 282.693 358.08 282.105 357.135 281.754C356.191 281.404 355.172 281.303 354.177 281.462C350.359 281.952 347.183 285.725 347.206 289.928C347.195 291.63 347.784 293.282 348.87 294.593L363.388 311.319C364.039 312.088 364.877 312.676 365.822 313.027C366.766 313.377 367.785 313.478 368.78 313.319C370.759 312.934 372.54 311.868 373.813 310.305C375.087 308.743 375.772 306.784 375.75 304.768Z" fill="url(#paint47_radial)"/>
<path d="M373.056 311.087C374.373 309.823 375.264 308.181 375.603 306.387L379.319 287.487C379.566 286.431 379.579 285.334 379.357 284.273C379.136 283.212 378.685 282.212 378.036 281.343C375.68 278.281 371.314 278.252 368.211 281.175C366.894 282.439 366.003 284.082 365.664 285.875L362.024 304.342L361.949 304.857C361.702 305.912 361.689 307.009 361.91 308.07C362.132 309.131 362.582 310.131 363.23 311C365.587 313.981 370.031 314.083 373.056 311.087Z" fill="url(#paint48_radial)"/>
<path d="M394.061 302.417C394.073 300.715 393.484 299.062 392.397 297.752L377.797 281.121C377.146 280.352 376.308 279.764 375.364 279.414C374.42 279.063 373.401 278.963 372.406 279.121C368.588 279.611 365.412 283.384 365.436 287.587C365.423 289.289 366.012 290.941 367.099 292.252L381.617 308.978C382.268 309.747 383.106 310.335 384.051 310.686C384.995 311.036 386.014 311.137 387.009 310.978C389.003 310.608 390.804 309.547 392.093 307.981C393.383 306.416 394.08 304.445 394.061 302.417Z" fill="url(#paint49_radial)"/>
<path d="M347.5 300.825C351.373 300.325 354.532 303.312 354.555 307.489C354.578 311.666 351.455 315.458 347.584 315.955C343.713 316.452 340.553 313.469 340.53 309.29C340.507 305.111 343.628 301.323 347.5 300.825Z" fill="url(#paint50_radial)"/>
<path d="M484.18 279.485L483.987 279.303L484.178 279.071C485.501 277.18 486.164 274.907 486.067 272.601C485.845 267.44 481.496 264.055 476.21 264.734L464.866 266.19C463.916 266.358 463.058 266.86 462.445 267.604C461.832 268.349 461.505 269.288 461.522 270.252L461.667 296.178C461.636 296.622 461.705 297.068 461.866 297.482C462.028 297.897 462.28 298.271 462.604 298.577C462.927 298.883 463.314 299.113 463.737 299.252C464.161 299.39 464.609 299.433 465.051 299.378L476.299 297.934C479.157 297.548 481.78 296.142 483.685 293.976C485.661 291.867 486.778 289.095 486.815 286.205C486.882 284.962 486.682 283.718 486.227 282.559C485.773 281.4 485.075 280.351 484.18 279.485ZM468.17 272.304L476.726 271.204C477.077 271.171 477.431 271.213 477.765 271.328C478.098 271.443 478.404 271.627 478.66 271.869C478.916 272.112 479.118 272.406 479.252 272.732C479.385 273.058 479.448 273.41 479.435 273.762C479.432 274.529 479.164 275.272 478.676 275.864C478.189 276.456 477.511 276.861 476.759 277.011L468.203 278.111L468.17 272.304ZM476.934 291.104L468.281 292.215L468.24 284.748L476.796 283.648C477.26 283.588 477.731 283.634 478.175 283.782C478.619 283.929 479.023 284.176 479.358 284.502C479.693 284.828 479.95 285.226 480.109 285.666C480.268 286.106 480.326 286.576 480.278 287.041C480.281 288.001 479.948 288.932 479.338 289.673C478.727 290.414 477.877 290.919 476.934 291.1V291.104Z" fill="black"/>
<path d="M447.924 281.546C445.324 281.153 442.243 280.615 442.038 278.358C442.044 277.509 442.341 276.688 442.881 276.033C443.42 275.377 444.168 274.927 445 274.758C448.842 273.746 452.22 275.699 454.05 275.984C455.88 276.269 457.311 274.423 457.495 272.739C457.77 270.213 455.455 269.161 454.586 268.65C452.124 267.502 449.37 267.131 446.692 267.588C439.866 268.464 435.179 273.321 435.213 279.336C435.231 282.655 436.398 284.892 438.62 286.371C442.965 289.341 451.42 287.84 451.442 291.471C451.46 294.686 445.897 297.476 439.72 293.91C439.155 293.526 438.472 293.356 437.793 293.431C436.929 293.594 436.15 294.055 435.591 294.734C435.032 295.412 434.729 296.266 434.735 297.145C434.712 297.708 434.849 298.266 435.129 298.755L435.029 298.871L435.129 298.755C435.129 298.855 435.229 298.846 435.229 298.95C435.825 299.854 436.662 300.574 437.646 301.027C439.19 301.97 442.082 302.948 446.408 302.393C449.645 302.099 452.688 300.721 455.044 298.481C456.101 297.398 456.93 296.115 457.484 294.707C458.038 293.298 458.305 291.794 458.269 290.281C458.424 284.037 453.317 282.41 447.924 281.546Z" fill="black"/>
<path d="M428.046 270.814L425.931 271.086C425.316 271.186 424.737 271.443 424.25 271.833C423.763 272.222 423.386 272.731 423.154 273.31L416.129 290.194L408.929 275.137C408.664 274.615 408.243 274.19 407.723 273.921C407.204 273.652 406.614 273.553 406.035 273.637L403.92 273.909C402.977 274.091 402.128 274.597 401.518 275.338C400.907 276.079 400.574 277.01 400.576 277.97L400.723 304.312C400.737 306.904 403.344 308.541 405.835 306.665C406.309 306.322 406.695 305.871 406.96 305.349C407.224 304.827 407.361 304.25 407.357 303.665L407.27 288.005L413.298 299.58C413.556 300.108 413.978 300.539 414.5 300.809C415.022 301.079 415.618 301.174 416.198 301.08C416.83 300.988 417.427 300.733 417.931 300.341C418.435 299.949 418.828 299.432 419.072 298.842L424.963 285.736L425.051 301.397C425.029 301.935 425.164 302.467 425.44 302.929C425.716 303.391 426.121 303.762 426.605 303.997C429.112 305.128 431.696 302.824 431.682 300.335L431.536 273.994C431.554 273.544 431.473 273.097 431.3 272.682C431.126 272.267 430.864 271.894 430.531 271.591C430.199 271.289 429.804 271.062 429.375 270.928C428.945 270.793 428.492 270.754 428.046 270.814Z" fill="black"/>
<path d="M87.178 333.286V320.623C87.178 320.278 87.3149 319.948 87.5587 319.704C87.8025 319.46 88.1333 319.323 88.4781 319.323H88.991C89.3358 319.323 89.6665 319.46 89.9103 319.704C90.1541 319.948 90.291 320.278 90.291 320.623V330.694C90.291 331.039 90.428 331.369 90.6718 331.613C90.9156 331.857 91.2462 331.994 91.591 331.994H96.721C97.0658 331.994 97.3965 332.131 97.6403 332.375C97.8841 332.619 98.021 332.949 98.021 333.294C98.021 333.639 97.8841 333.969 97.6403 334.213C97.3965 334.457 97.0658 334.594 96.721 334.594H88.486C88.3139 334.595 88.1435 334.562 87.9843 334.497C87.8251 334.431 87.6804 334.335 87.5587 334.213C87.4371 334.092 87.3408 333.947 87.2754 333.788C87.2101 333.629 87.1769 333.458 87.178 333.286Z" fill="black"/>
<path d="M99.516 328.854C99.5192 327.861 99.7679 326.884 100.24 326.01C100.697 325.12 101.412 324.388 102.291 323.91C103.201 323.421 104.221 323.172 105.254 323.185C106.021 323.158 106.785 323.29 107.498 323.573C108.211 323.856 108.858 324.283 109.398 324.828C109.934 325.374 110.353 326.024 110.631 326.737C110.909 327.45 111.04 328.212 111.015 328.977C111.039 329.75 110.907 330.519 110.627 331.239C110.346 331.96 109.923 332.616 109.383 333.169C108.85 333.715 108.21 334.145 107.503 334.431C106.796 334.717 106.038 334.854 105.275 334.832C104.261 334.833 103.26 334.596 102.354 334.14C101.453 333.702 100.713 332.992 100.24 332.109C99.7304 331.101 99.4815 329.982 99.516 328.854ZM102.537 329.011C102.475 329.926 102.755 330.831 103.324 331.55C103.563 331.831 103.86 332.056 104.196 332.208C104.532 332.361 104.897 332.437 105.266 332.432C105.634 332.437 105.998 332.361 106.333 332.209C106.667 332.056 106.964 331.831 107.201 331.55C107.768 330.822 108.046 329.91 107.982 328.99C108.042 328.083 107.764 327.186 107.201 326.472C106.964 326.191 106.667 325.967 106.332 325.814C105.998 325.662 105.634 325.586 105.266 325.591C104.897 325.586 104.532 325.662 104.196 325.814C103.861 325.966 103.563 326.191 103.324 326.472C102.755 327.191 102.475 328.096 102.537 329.011Z" fill="black"/>
<path d="M113.051 335.316L115.632 335.63C115.823 335.644 116.007 335.706 116.169 335.809C116.33 335.912 116.464 336.054 116.557 336.221C116.613 336.344 116.699 336.452 116.807 336.533C117.204 336.774 117.666 336.885 118.129 336.849C118.726 336.886 119.322 336.766 119.859 336.502C120.134 336.328 120.342 336.065 120.447 335.757C120.561 335.315 120.607 334.859 120.584 334.403V332.777C120.221 333.33 119.725 333.784 119.143 334.098C118.56 334.413 117.909 334.577 117.247 334.577C116.541 334.593 115.842 334.426 115.219 334.094C114.596 333.761 114.069 333.273 113.69 332.677C112.973 331.567 112.614 330.263 112.662 328.942C112.555 327.396 113.037 325.867 114.01 324.661C114.427 324.185 114.944 323.807 115.523 323.551C116.102 323.295 116.729 323.169 117.362 323.181C118.036 323.179 118.7 323.343 119.295 323.66C119.89 323.977 120.398 324.436 120.772 324.997V324.509C120.772 324.224 120.885 323.95 121.087 323.748C121.289 323.546 121.563 323.433 121.848 323.433H122.456C122.597 323.433 122.737 323.461 122.868 323.515C122.998 323.569 123.117 323.648 123.217 323.748C123.316 323.848 123.395 323.967 123.449 324.097C123.503 324.228 123.531 324.368 123.531 324.509V333.432C123.57 334.426 123.461 335.42 123.207 336.381C123.034 336.959 122.72 337.485 122.293 337.912C121.842 338.317 121.306 338.614 120.725 338.783C119.919 339.013 119.082 339.12 118.244 339.098C116.834 339.226 115.422 338.885 114.226 338.128C113.85 337.838 113.548 337.465 113.342 337.038C113.135 336.611 113.032 336.141 113.039 335.667C113.039 335.573 113.043 335.456 113.051 335.316ZM115.684 328.78C115.607 329.7 115.85 330.618 116.371 331.38C116.571 331.638 116.828 331.847 117.122 331.99C117.416 332.132 117.738 332.205 118.065 332.203C118.413 332.207 118.758 332.133 119.073 331.987C119.389 331.841 119.669 331.626 119.891 331.358C120.437 330.644 120.702 329.754 120.636 328.858C120.708 327.944 120.455 327.034 119.922 326.287C119.705 326.019 119.429 325.804 119.117 325.658C118.804 325.513 118.462 325.44 118.117 325.447C117.782 325.441 117.45 325.512 117.147 325.655C116.845 325.798 116.579 326.009 116.371 326.272C115.858 327.003 115.615 327.89 115.684 328.78Z" fill="black"/>
<path d="M126.448 320.565C126.448 320.386 126.483 320.208 126.552 320.043C126.62 319.877 126.721 319.727 126.848 319.601C126.974 319.474 127.125 319.373 127.29 319.305C127.456 319.236 127.633 319.201 127.812 319.201H128.033C128.395 319.201 128.741 319.345 128.997 319.601C129.252 319.857 129.396 320.203 129.396 320.565C129.396 320.744 129.361 320.921 129.292 321.087C129.224 321.252 129.124 321.403 128.997 321.53C128.871 321.656 128.72 321.757 128.555 321.825C128.389 321.894 128.212 321.929 128.033 321.929H127.812C127.633 321.929 127.456 321.894 127.29 321.825C127.125 321.757 126.974 321.656 126.848 321.53C126.721 321.403 126.62 321.252 126.552 321.087C126.483 320.921 126.448 320.744 126.448 320.565ZM126.448 333.218V324.803C126.448 324.624 126.483 324.446 126.552 324.281C126.62 324.116 126.721 323.965 126.848 323.839C126.974 323.712 127.125 323.611 127.29 323.543C127.456 323.474 127.633 323.439 127.812 323.439H128.033C128.395 323.439 128.741 323.583 128.997 323.839C129.252 324.095 129.396 324.441 129.396 324.803V333.218C129.396 333.58 129.252 333.926 128.997 334.182C128.741 334.438 128.395 334.582 128.033 334.582H127.812C127.633 334.582 127.456 334.547 127.29 334.478C127.125 334.41 126.974 334.309 126.848 334.182C126.721 334.056 126.62 333.905 126.552 333.74C126.483 333.575 126.448 333.397 126.448 333.218Z" fill="black"/>
<path d="M141.184 334.582H140.975C140.795 334.582 140.617 334.547 140.451 334.478C140.285 334.409 140.134 334.309 140.006 334.181C139.879 334.054 139.778 333.903 139.709 333.737C139.64 333.571 139.605 333.393 139.605 333.213V328.896C139.647 328.113 139.583 327.328 139.416 326.562C139.306 326.228 139.091 325.939 138.803 325.737C138.5 325.536 138.143 325.433 137.779 325.443C137.289 325.438 136.809 325.584 136.405 325.863C136.01 326.13 135.716 326.522 135.571 326.976C135.382 327.815 135.306 328.676 135.346 329.535V333.213C135.346 333.576 135.202 333.924 134.945 334.181C134.688 334.438 134.34 334.582 133.977 334.582H133.767C133.587 334.582 133.409 334.547 133.243 334.478C133.077 334.409 132.926 334.309 132.798 334.181C132.671 334.054 132.57 333.903 132.501 333.737C132.432 333.571 132.397 333.393 132.397 333.213V324.813C132.397 324.45 132.541 324.101 132.798 323.844C133.055 323.587 133.404 323.443 133.767 323.443C133.947 323.443 134.125 323.479 134.291 323.547C134.457 323.616 134.608 323.717 134.735 323.844C134.862 323.972 134.963 324.123 135.032 324.289C135.101 324.455 135.136 324.633 135.136 324.813V325.08C135.55 324.493 136.101 324.014 136.74 323.685C137.38 323.356 138.089 323.187 138.808 323.191C139.421 323.184 140.028 323.304 140.592 323.543C141.07 323.733 141.49 324.043 141.813 324.443C142.091 324.81 142.288 325.232 142.391 325.681C142.516 326.334 142.571 326.999 142.553 327.663V333.219C142.551 333.581 142.406 333.928 142.15 334.183C141.893 334.439 141.546 334.582 141.184 334.582Z" fill="black"/>
<path d="M120.759 308.71C120.755 307.607 120.368 306.539 119.665 305.689L110.029 294.23C109.594 293.699 109.045 293.274 108.423 292.985C107.801 292.697 107.121 292.552 106.435 292.563C105.193 292.566 104.002 293.061 103.124 293.94C102.245 294.818 101.75 296.009 101.747 297.251C101.751 298.354 102.138 299.422 102.841 300.272L112.477 311.784C112.912 312.314 113.461 312.739 114.083 313.028C114.706 313.316 115.385 313.461 116.071 313.45C117.319 313.435 118.51 312.929 119.387 312.042C120.265 311.155 120.758 309.958 120.759 308.71Z" fill="url(#paint51_radial)"/>
<path d="M118.936 312.409C119.814 311.741 120.424 310.78 120.655 309.7L123.208 298.293C123.369 297.621 123.377 296.921 123.233 296.245C123.088 295.569 122.795 294.934 122.374 294.386C122.003 293.895 121.538 293.481 121.007 293.171C120.475 292.86 119.887 292.657 119.277 292.575C118.667 292.493 118.046 292.532 117.451 292.691C116.856 292.85 116.299 293.125 115.811 293.501C114.932 294.169 114.323 295.13 114.092 296.209L111.592 307.356L111.54 307.668C111.379 308.34 111.37 309.04 111.515 309.716C111.659 310.392 111.952 311.027 112.373 311.575C112.748 312.063 113.215 312.472 113.748 312.778C114.282 313.084 114.871 313.282 115.481 313.36C116.091 313.437 116.71 313.393 117.303 313.23C117.896 313.067 118.451 312.788 118.936 312.409Z" fill="url(#paint52_radial)"/>
<path d="M133 308.71C132.996 307.607 132.609 306.539 131.906 305.689L122.217 294.23C121.782 293.699 121.233 293.274 120.611 292.985C119.989 292.697 119.31 292.552 118.624 292.563C117.382 292.566 116.191 293.061 115.313 293.94C114.434 294.818 113.939 296.009 113.936 297.251C113.94 298.354 114.326 299.422 115.029 300.272L124.666 311.784C125.101 312.314 125.65 312.74 126.272 313.028C126.895 313.317 127.574 313.461 128.26 313.45C129.516 313.445 130.719 312.944 131.606 312.056C132.494 311.169 132.995 309.966 133 308.71Z" fill="url(#paint53_radial)"/>
<path d="M101.9 304.022C103.143 304.022 104.336 304.516 105.215 305.395C106.094 306.274 106.588 307.467 106.588 308.71C106.588 309.326 106.467 309.935 106.231 310.504C105.996 311.073 105.651 311.59 105.215 312.025C104.78 312.46 104.263 312.806 103.694 313.042C103.125 313.277 102.516 313.398 101.9 313.398C101.284 313.398 100.675 313.277 100.106 313.041C99.5374 312.805 99.0207 312.46 98.5854 312.025C98.1502 311.59 97.8049 311.073 97.5695 310.504C97.334 309.935 97.2129 309.326 97.213 308.71C97.2129 308.094 97.334 307.485 97.5695 306.916C97.8049 306.347 98.1502 305.831 98.5854 305.395C99.0207 304.96 99.5374 304.615 100.106 304.379C100.675 304.143 101.284 304.022 101.9 304.022Z" fill="url(#paint54_radial)"/>
<defs>
<radialGradient id="paint0_radial" cx="0" cy="0" r="1" gradientUnits="userSpaceOnUse" gradientTransform="translate(20.4198 260.356) scale(118.25 118.143)">
<stop offset="0.356" stop-color="#DA2128"/>
<stop offset="1" stop-color="#F37021"/>
</radialGradient>
<radialGradient id="paint1_radial" cx="0" cy="0" r="1" gradientUnits="userSpaceOnUse" gradientTransform="translate(-744.959 260.354) scale(118.173 118.154)">
<stop offset="0.356" stop-color="#DA2128"/>
<stop offset="1" stop-color="#F37021"/>
</radialGradient>
<radialGradient id="paint2_radial" cx="0" cy="0" r="1" gradientUnits="userSpaceOnUse" gradientTransform="translate(-623.271 260.37) scale(118.073 118.156)">
<stop offset="0.356" stop-color="#DA2128"/>
<stop offset="1" stop-color="#F37021"/>
</radialGradient>
<radialGradient id="paint3_radial" cx="0" cy="0" r="1" gradientUnits="userSpaceOnUse" gradientTransform="translate(-577.447 260.365) scale(118.15 118.123)">
<stop offset="0.356" stop-color="#DA2128"/>
<stop offset="1" stop-color="#F37021"/>
</radialGradient>
<radialGradient id="paint4_radial" cx="0" cy="0" r="1" gradientUnits="userSpaceOnUse" gradientTransform="translate(298.911 260.361) scale(118.19 118.163)">
<stop offset="0.356" stop-color="#DA2128"/>
<stop offset="1" stop-color="#F37021"/>
</radialGradient>
<radialGradient id="paint5_radial" cx="0" cy="0" r="1" gradientUnits="userSpaceOnUse" gradientTransform="translate(-357.378 260.362) scale(118.162 118.141)">
<stop offset="0.356" stop-color="#DA2128"/>
<stop offset="1" stop-color="#F37021"/>
</radialGradient>
<radialGradient id="paint6_radial" cx="0" cy="0" r="1" gradientUnits="userSpaceOnUse" gradientTransform="translate(460.5 410.363) scale(13.2333 13.2402)">
<stop offset="0.356" stop-color="#DA2128"/>
<stop offset="1" stop-color="#F37021"/>
</radialGradient>
<radialGradient id="paint7_radial" cx="0" cy="0" r="1" gradientUnits="userSpaceOnUse" gradientTransform="translate(-743.982 260.351) scale(118.194 118.146)">
<stop offset="0.356" stop-color="#DA2128"/>
<stop offset="1" stop-color="#F37021"/>
</radialGradient>
<radialGradient id="paint8_radial" cx="0" cy="0" r="1" gradientUnits="userSpaceOnUse" gradientTransform="translate(829.591 260.197) scale(118.174 118.262)">
<stop offset="0.356" stop-color="#DA2128"/>
<stop offset="1" stop-color="#F37021"/>
</radialGradient>
<radialGradient id="paint9_radial" cx="0" cy="0" r="1" gradientUnits="userSpaceOnUse" gradientTransform="translate(494.634 260.355) scale(118.153 118.138)">
<stop offset="0.356" stop-color="#DA2128"/>
<stop offset="1" stop-color="#F37021"/>
</radialGradient>
<radialGradient id="paint10_radial" cx="0" cy="0" r="1" gradientUnits="userSpaceOnUse" gradientTransform="translate(-1117.9 324.163) scale(101.942 101.948)">
<stop offset="0.356" stop-color="#DA2128"/>
<stop offset="1" stop-color="#F37021"/>
</radialGradient>
<radialGradient id="paint11_radial" cx="0" cy="0" r="1" gradientUnits="userSpaceOnUse" gradientTransform="translate(-2070.77 340.399) scale(2.99889 2.99912)">
<stop offset="0.356" stop-color="#DA2128"/>
<stop offset="1" stop-color="#F37021"/>
</radialGradient>
<radialGradient id="paint12_radial" cx="0" cy="0" r="1" gradientUnits="userSpaceOnUse" gradientTransform="translate(499.895 284.146) scale(135.98 135.917)">
<stop offset="0.356" stop-color="#DA2128"/>
<stop offset="1" stop-color="#F37021"/>
</radialGradient>
<radialGradient id="paint13_radial" cx="0" cy="0" r="1" gradientUnits="userSpaceOnUse" gradientTransform="translate(1154.11 330.729) scale(225.925 225.759)">
<stop offset="0.356" stop-color="#DA2128"/>
<stop offset="1" stop-color="#F37021"/>
</radialGradient>
<radialGradient id="paint14_radial" cx="0" cy="0" r="1" gradientUnits="userSpaceOnUse" gradientTransform="translate(1182.69 374.705) scale(327.002 325.69)">
<stop offset="0.018" stop-color="#6F0000"/>
<stop offset="0.325" stop-color="#910D11"/>
<stop offset="0.446" stop-color="#A61519"/>
<stop offset="0.594" stop-color="#BC1B20"/>
<stop offset="0.738" stop-color="#CB1E24"/>
<stop offset="0.876" stop-color="#D52027"/>
<stop offset="1" stop-color="#DA2128"/>
</radialGradient>
<radialGradient id="paint15_radial" cx="0" cy="0" r="1" gradientUnits="userSpaceOnUse" gradientTransform="translate(644.91 428.348) scale(263.724 263.637)">
<stop offset="0.356" stop-color="#DA2128"/>
<stop offset="1" stop-color="#F37021"/>
</radialGradient>
<radialGradient id="paint16_radial" cx="0" cy="0" r="1" gradientUnits="userSpaceOnUse" gradientTransform="translate(-805.597 243.305) scale(95.866 95.8666)">
<stop offset="0.356" stop-color="#DA2128"/>
<stop offset="1" stop-color="#F37021"/>
</radialGradient>
<radialGradient id="paint17_radial" cx="0" cy="0" r="1" gradientUnits="userSpaceOnUse" gradientTransform="translate(-235.975 262.631) scale(17.9718 17.9744)">
<stop offset="0.356" stop-color="#DA2128"/>
<stop offset="1" stop-color="#F37021"/>
</radialGradient>
<radialGradient id="paint18_radial" cx="0" cy="0" r="1" gradientUnits="userSpaceOnUse" gradientTransform="translate(389.628 124.6) scale(386.214 386.139)">
<stop offset="0.356" stop-color="#DA2128"/>
<stop offset="1" stop-color="#F37021"/>
</radialGradient>
<radialGradient id="paint19_radial" cx="0" cy="0" r="1" gradientUnits="userSpaceOnUse" gradientTransform="translate(510.025 124.588) scale(386.078 386.128)">
<stop offset="0.356" stop-color="#DA2128"/>
<stop offset="1" stop-color="#F37021"/>
</radialGradient>
<radialGradient id="paint20_radial" cx="0" cy="0" r="1" gradientUnits="userSpaceOnUse" gradientTransform="translate(538.233 124.572) scale(386.272 386.138)">
<stop offset="0.356" stop-color="#DA2128"/>
<stop offset="1" stop-color="#F37021"/>
</radialGradient>
<radialGradient id="paint21_radial" cx="0" cy="0" r="1" gradientUnits="userSpaceOnUse" gradientTransform="translate(-361.025 124.584) scale(386.121 386.165)">
<stop offset="0.356" stop-color="#DA2128"/>
<stop offset="1" stop-color="#F37021"/>
</radialGradient>
<radialGradient id="paint22_radial" cx="0" cy="0" r="1" gradientUnits="userSpaceOnUse" gradientTransform="translate(427.082 124.58) scale(386.161 386.142)">
<stop offset="0.356" stop-color="#DA2128"/>
<stop offset="1" stop-color="#F37021"/>
</radialGradient>
<radialGradient id="paint23_radial" cx="0" cy="0" r="1" gradientUnits="userSpaceOnUse" gradientTransform="translate(255.961 124.563) scale(386.219 386.127)">
<stop offset="0.356" stop-color="#DA2128"/>
<stop offset="1" stop-color="#F37021"/>
</radialGradient>
<radialGradient id="paint24_radial" cx="0" cy="0" r="1" gradientUnits="userSpaceOnUse" gradientTransform="translate(30.7226 124.625) scale(386.104 386.119)">
<stop offset="0.356" stop-color="#DA2128"/>
<stop offset="1" stop-color="#F37021"/>
</radialGradient>
<radialGradient id="paint25_radial" cx="0" cy="0" r="1" gradientUnits="userSpaceOnUse" gradientTransform="translate(539.965 124.572) scale(386.196 386.139)">
<stop offset="0.356" stop-color="#DA2128"/>
<stop offset="1" stop-color="#F37021"/>
</radialGradient>
<radialGradient id="paint26_radial" cx="0" cy="0" r="1" gradientUnits="userSpaceOnUse" gradientTransform="translate(653.466 124.574) scale(386.18 386.142)">
<stop offset="0.356" stop-color="#DA2128"/>
<stop offset="1" stop-color="#F37021"/>
</radialGradient>
<radialGradient id="paint27_radial" cx="0" cy="0" r="1" gradientUnits="userSpaceOnUse" gradientTransform="translate(836.653 124.607) scale(385.981 386.121)">
<stop offset="0.356" stop-color="#DA2128"/>
<stop offset="1" stop-color="#F37021"/>
</radialGradient>
<radialGradient id="paint28_radial" cx="0" cy="0" r="1" gradientUnits="userSpaceOnUse" gradientTransform="translate(689.196 124.608) scale(386.296 386.124)">
<stop offset="0.356" stop-color="#DA2128"/>
<stop offset="1" stop-color="#F37021"/>
</radialGradient>
<radialGradient id="paint29_radial" cx="0" cy="0" r="1" gradientUnits="userSpaceOnUse" gradientTransform="translate(575.697 124.603) scale(385.984 386.127)">
<stop offset="0.356" stop-color="#DA2128"/>
<stop offset="1" stop-color="#F37021"/>
</radialGradient>
<radialGradient id="paint30_radial" cx="0" cy="0" r="1" gradientUnits="userSpaceOnUse" gradientTransform="translate(133.997 438.446) rotate(180) scale(17.1829 17.1872)">
<stop offset="0.018" stop-color="#6F0000"/>
<stop offset="0.325" stop-color="#910D11"/>
<stop offset="0.446" stop-color="#A61519"/>
<stop offset="0.594" stop-color="#BC1B20"/>
<stop offset="0.738" stop-color="#CB1E24"/>
<stop offset="0.876" stop-color="#D52027"/>
<stop offset="1" stop-color="#DA2128"/>
</radialGradient>
<radialGradient id="paint31_radial" cx="0" cy="0" r="1" gradientUnits="userSpaceOnUse" gradientTransform="translate(157.995 427.225) rotate(180) scale(39.2021 39.0644)">
<stop offset="0.018" stop-color="#6F0000"/>
<stop offset="0.325" stop-color="#910D11"/>
<stop offset="0.446" stop-color="#A61519"/>
<stop offset="0.594" stop-color="#BC1B20"/>
<stop offset="0.738" stop-color="#CB1E24"/>
<stop offset="0.876" stop-color="#D52027"/>
<stop offset="1" stop-color="#DA2128"/>
</radialGradient>
<radialGradient id="paint32_radial" cx="0" cy="0" r="1" gradientUnits="userSpaceOnUse" gradientTransform="translate(138.264 474.484) rotate(180) scale(86.416 86.3788)">
<stop offset="0.356" stop-color="#DA2128"/>
<stop offset="1" stop-color="#F37021"/>
</radialGradient>
<radialGradient id="paint33_radial" cx="0" cy="0" r="1" gradientUnits="userSpaceOnUse" gradientTransform="translate(2978.06 301.962) rotate(180) scale(226.601 226.559)">
<stop offset="0.356" stop-color="#DA2128"/>
<stop offset="1" stop-color="#F37021"/>
</radialGradient>
<radialGradient id="paint34_radial" cx="0" cy="0" r="1" gradientUnits="userSpaceOnUse" gradientTransform="translate(2730.94 301.959) rotate(180) scale(226.446 226.556)">
<stop offset="0.356" stop-color="#DA2128"/>
<stop offset="1" stop-color="#F37021"/>
</radialGradient>
<radialGradient id="paint35_radial" cx="0" cy="0" r="1" gradientUnits="userSpaceOnUse" gradientTransform="translate(2664.83 301.962) rotate(180) scale(226.635 226.567)">
<stop offset="0.356" stop-color="#DA2128"/>
<stop offset="1" stop-color="#F37021"/>
</radialGradient>
<radialGradient id="paint36_radial" cx="0" cy="0" r="1" gradientUnits="userSpaceOnUse" gradientTransform="translate(4500.96 301.96) rotate(180) scale(226.568 226.561)">
<stop offset="0.356" stop-color="#DA2128"/>
<stop offset="1" stop-color="#F37021"/>
</radialGradient>
<radialGradient id="paint37_radial" cx="0" cy="0" r="1" gradientUnits="userSpaceOnUse" gradientTransform="translate(2884.1 301.944) rotate(180) scale(226.574 226.568)">
<stop offset="0.356" stop-color="#DA2128"/>
<stop offset="1" stop-color="#F37021"/>
</radialGradient>
<radialGradient id="paint38_radial" cx="0" cy="0" r="1" gradientUnits="userSpaceOnUse" gradientTransform="translate(3228.36 301.939) rotate(180) scale(226.602 226.551)">
<stop offset="0.356" stop-color="#DA2128"/>
<stop offset="1" stop-color="#F37021"/>
</radialGradient>
<radialGradient id="paint39_radial" cx="0" cy="0" r="1" gradientUnits="userSpaceOnUse" gradientTransform="translate(3699.74 301.958) rotate(180) scale(226.526 226.583)">
<stop offset="0.356" stop-color="#DA2128"/>
<stop offset="1" stop-color="#F37021"/>
</radialGradient>
<radialGradient id="paint40_radial" cx="0" cy="0" r="1" gradientUnits="userSpaceOnUse" gradientTransform="translate(2662.93 301.948) rotate(180) scale(226.335 226.552)">
<stop offset="0.356" stop-color="#DA2128"/>
<stop offset="1" stop-color="#F37021"/>
</radialGradient>
<radialGradient id="paint41_radial" cx="0" cy="0" r="1" gradientUnits="userSpaceOnUse" gradientTransform="translate(2427.31 301.949) rotate(180) scale(226.581 226.556)">
<stop offset="0.356" stop-color="#DA2128"/>
<stop offset="1" stop-color="#F37021"/>
</radialGradient>
<radialGradient id="paint42_radial" cx="0" cy="0" r="1" gradientUnits="userSpaceOnUse" gradientTransform="translate(2065.91 301.962) rotate(180) scale(226.467 226.545)">
<stop offset="0.356" stop-color="#DA2128"/>
<stop offset="1" stop-color="#F37021"/>
</radialGradient>
<radialGradient id="paint43_radial" cx="0" cy="0" r="1" gradientUnits="userSpaceOnUse" gradientTransform="translate(2353.74 301.968) rotate(180) scale(226.432 226.547)">
<stop offset="0.356" stop-color="#DA2128"/>
<stop offset="1" stop-color="#F37021"/>
</radialGradient>
<radialGradient id="paint44_radial" cx="0" cy="0" r="1" gradientUnits="userSpaceOnUse" gradientTransform="translate(2591.44 301.958) rotate(180) scale(226.468 226.557)">
<stop offset="0.356" stop-color="#DA2128"/>
<stop offset="1" stop-color="#F37021"/>
</radialGradient>
<radialGradient id="paint45_radial" cx="0" cy="0" r="1" gradientUnits="userSpaceOnUse" gradientTransform="translate(-2485.67 399.62) scale(18.4851)">
<stop offset="0.356" stop-color="#DA2128"/>
<stop offset="1" stop-color="#F37021"/>
</radialGradient>
<radialGradient id="paint46_radial" cx="0" cy="0" r="1" gradientUnits="userSpaceOnUse" gradientTransform="translate(-1562.85 397.786) scale(99.6703 99.6825)">
<stop offset="0.356" stop-color="#DA2128"/>
<stop offset="1" stop-color="#F37021"/>
</radialGradient>
<radialGradient id="paint47_radial" cx="0" cy="0" r="1" gradientUnits="userSpaceOnUse" gradientTransform="translate(233.759 45.3217) rotate(-0.30694) scale(15.0261 16.0948)">
<stop offset="0.018" stop-color="#6F0000"/>
<stop offset="0.325" stop-color="#910D11"/>
<stop offset="0.446" stop-color="#A61519"/>
<stop offset="0.594" stop-color="#BC1B20"/>
<stop offset="0.738" stop-color="#CB1E24"/>
<stop offset="0.876" stop-color="#D52027"/>
<stop offset="1" stop-color="#DA2128"/>
</radialGradient>
<radialGradient id="paint48_radial" cx="0" cy="0" r="1" gradientUnits="userSpaceOnUse" gradientTransform="translate(-483.934 54.1116) rotate(-0.177844) scale(13.4237 14.3385)">
<stop offset="0.037" stop-color="#6F0000"/>
<stop offset="0.301" stop-color="#910D11"/>
<stop offset="0.417" stop-color="#A01317"/>
<stop offset="0.678" stop-color="#BE1B21"/>
<stop offset="0.881" stop-color="#D11F26"/>
<stop offset="1" stop-color="#DA2128"/>
</radialGradient>
<radialGradient id="paint49_radial" cx="0" cy="0" r="1" gradientUnits="userSpaceOnUse" gradientTransform="translate(241.616 37.556) rotate(-0.307762) scale(27.051 28.9704)">
<stop offset="0.356" stop-color="#DA2128"/>
<stop offset="1" stop-color="#F37021"/>
</radialGradient>
<radialGradient id="paint50_radial" cx="0" cy="0" r="1" gradientUnits="userSpaceOnUse" gradientTransform="translate(240.79 68.2425) rotate(-0.316551) scale(14.0283 15.0178)">
<stop offset="0.313" stop-color="#DA2128"/>
<stop offset="0.791" stop-color="#910D11"/>
<stop offset="1" stop-color="#6F0000"/>
</radialGradient>
<radialGradient id="paint51_radial" cx="0" cy="0" r="1" gradientUnits="userSpaceOnUse" gradientTransform="translate(0.599371 298.683) scale(9.96657 9.96361)">
<stop offset="0.018" stop-color="#6F0000"/>
<stop offset="0.325" stop-color="#910D11"/>
<stop offset="0.446" stop-color="#A61519"/>
<stop offset="0.594" stop-color="#BC1B20"/>
<stop offset="0.738" stop-color="#CB1E24"/>
<stop offset="0.876" stop-color="#D52027"/>
<stop offset="1" stop-color="#DA2128"/>
</radialGradient>
<radialGradient id="paint52_radial" cx="0" cy="0" r="1" gradientUnits="userSpaceOnUse" gradientTransform="translate(-733.923 304.676) scale(8.88818 8.88793)">
<stop offset="0.037" stop-color="#6F0000"/>
<stop offset="0.301" stop-color="#910D11"/>
<stop offset="0.417" stop-color="#A01317"/>
<stop offset="0.678" stop-color="#BE1B21"/>
<stop offset="0.881" stop-color="#D11F26"/>
<stop offset="1" stop-color="#DA2128"/>
</radialGradient>
<radialGradient id="paint53_radial" cx="0" cy="0" r="1" gradientUnits="userSpaceOnUse" gradientTransform="translate(7.49748 294.568) scale(17.948 17.9429)">
<stop offset="0.356" stop-color="#DA2128"/>
<stop offset="1" stop-color="#F37021"/>
</radialGradient>
<radialGradient id="paint54_radial" cx="0" cy="0" r="1" gradientUnits="userSpaceOnUse" gradientTransform="translate(99.5256 310.51) scale(9.30938 9.31034)">
<stop offset="0.313" stop-color="#DA2128"/>
<stop offset="0.791" stop-color="#910D11"/>
<stop offset="1" stop-color="#6F0000"/>
</radialGradient>
</defs>
</svg>
