<svg width="12" height="12" viewBox="0 0 12 12" fill="none" xmlns="http://www.w3.org/2000/svg">
<path d="M8.26473 1.46922L1.46872 8.26523C0.843103 8.89085 0.843103 9.90518 1.46872 10.5308C2.09434 11.1564 3.10867 11.1564 3.73429 10.5308L10.5303 3.73479C11.1559 3.10917 11.1559 2.09484 10.5303 1.46922C9.90468 0.843602 8.89035 0.843602 8.26473 1.46922Z" fill="black"/>
<path d="M3.73429 1.46933C3.10867 0.843707 2.09434 0.843707 1.46872 1.46933C0.843103 2.09495 0.843103 3.10928 1.46872 3.7349L8.26473 10.5309C8.89035 11.1565 9.90468 11.1565 10.5303 10.5309C11.1559 9.90528 11.1559 8.89095 10.5303 8.26533L3.73429 1.46933Z" fill="black"/>
</svg>
