<svg width="39" height="28" viewBox="0 0 39 28" fill="none" xmlns="http://www.w3.org/2000/svg">
<path d="M37.3271 17.429C37.8125 17.6788 38.2013 18.0824 38.4329 18.5767C38.6645 19.071 38.7258 19.6281 38.6071 20.1609L37.8391 25.8789C37.6684 27.0182 36.8724 27.587 35.4511 27.585H3.55113C2.12913 27.585 1.33313 27.0162 1.16313 25.8789L0.395121 20.1609C0.274342 19.6377 0.325219 19.0895 0.540262 18.5974C0.755305 18.1054 1.12306 17.6957 1.58909 17.429L7.73112 12.729H11.3131L6.02513 18.021H10.2891C10.3893 18.0152 10.4892 18.0358 10.579 18.0806C10.6688 18.1253 10.7454 18.1925 10.8011 18.2759L12.3361 22.1179H26.6661L28.2011 18.2759C28.2437 18.2 28.3055 18.1365 28.3802 18.0918C28.4549 18.0471 28.5401 18.0227 28.6271 18.021H32.9771L27.6891 12.729H31.2711L37.3271 17.429ZM19.5001 0.272949L30.4171 10.1731H23.5941V18.3669H15.4061V10.1731H8.58207L19.5001 0.272949Z" fill="#BABABA"/>
</svg>
