<svg width="11" height="13" viewBox="0 0 11 13" fill="none" xmlns="http://www.w3.org/2000/svg">
<path d="M9.71899 9.09396L11 10.406V11.062H0V10.406L1.28101 9.09396V5.53095C1.27138 4.57982 1.59791 3.65585 2.203 2.92196C2.78999 2.17931 3.61012 1.65615 4.53101 1.43695V0.968956C4.52518 0.713466 4.62082 0.466072 4.797 0.280952C4.98661 0.100586 5.2383 0 5.5 0C5.7617 0 6.01339 0.100586 6.203 0.280952C6.37918 0.466072 6.47482 0.713466 6.46899 0.968956V1.43695C7.38988 1.65615 8.21001 2.17931 8.797 2.92196C9.40209 3.65585 9.72862 4.57982 9.71899 5.53095V9.09396ZM6.40601 12.609C6.28961 12.7324 6.14921 12.8308 5.99341 12.8981C5.83761 12.9653 5.6697 13 5.5 13C5.3303 13 5.16239 12.9653 5.00659 12.8981C4.85079 12.8308 4.71039 12.7324 4.59399 12.609C4.47331 12.4879 4.37799 12.3441 4.3136 12.1857C4.24921 12.0274 4.21705 11.8579 4.21899 11.687H6.78101C6.78295 11.8579 6.75079 12.0274 6.6864 12.1857C6.62201 12.3441 6.52669 12.4879 6.40601 12.609V12.609Z" fill="white"/>
</svg>
