<svg width="14" height="15" viewBox="0 0 14 15" fill="none" xmlns="http://www.w3.org/2000/svg">
<path d="M14.0002 14.352H0.30021C0.292625 13.875 0.316265 13.3979 0.371133 12.924C0.4658 12.448 1.42946 11.8653 3.26212 11.176C3.54679 11.08 3.89182 10.961 4.29716 10.819C4.64211 10.7288 4.96823 10.5777 5.26017 10.373C5.3923 10.0764 5.44166 9.74947 5.40312 9.42701V9.21301C5.39487 8.90493 5.28169 8.60892 5.08219 8.37401C4.80743 7.93682 4.6364 7.44253 4.58219 6.92901C4.54846 6.72663 4.4758 6.53271 4.3682 6.35801C4.22887 6.0894 4.13266 5.80053 4.08317 5.50201C4.01172 5.30694 4.00534 5.09397 4.0651 4.89501C4.10696 4.77939 4.1369 4.65975 4.15421 4.53801C4.10621 4.15734 4.05848 3.76501 4.01115 3.36101C4.00574 2.7007 4.26251 2.06521 4.72514 1.59401C5.38678 0.985646 6.25283 0.64801 7.15165 0.64801C8.05047 0.64801 8.91652 0.985646 9.57816 1.59401C10.0401 2.06563 10.2968 2.70084 10.2922 3.36101C10.2442 3.76501 10.1965 4.15734 10.1492 4.53801C10.1665 4.65975 10.1963 4.77939 10.2382 4.89501C10.298 5.09397 10.2916 5.30694 10.2201 5.50201C10.1706 5.80053 10.0746 6.0894 9.93522 6.35801C9.82762 6.53271 9.75484 6.72663 9.72111 6.92901C9.66691 7.44253 9.49587 7.93682 9.22111 8.37401C9.02161 8.60892 8.90843 8.90493 8.90019 9.21301C8.90019 9.92701 8.97151 10.3313 9.11417 10.426C9.68432 10.6839 10.2682 10.9102 10.8632 11.104C10.9208 11.1322 10.9802 11.1562 11.0412 11.176C12.8732 11.8653 13.8368 12.448 13.9322 12.924L14.0002 14.352Z" fill="url(#paint0_radial)"/>
<defs>
<radialGradient id="paint0_radial" cx="0" cy="0" r="1" gradientUnits="userSpaceOnUse" gradientTransform="translate(-1.0028 -35.7635) scale(56.7098 56.7209)">
<stop offset="0.356" stop-color="#DA2128"/>
<stop offset="1" stop-color="#F37021"/>
</radialGradient>
</defs>
</svg>
