<svg width="23" height="23" viewBox="0 0 23 23" fill="none" xmlns="http://www.w3.org/2000/svg">
<path d="M21.22 0.133057H1.78C0.796933 0.133057 0 0.92999 0 1.91306V2.48606C0 3.46912 0.796933 4.26606 1.78 4.26606H21.22C22.2031 4.26606 23 3.46912 23 2.48606V1.91306C23 0.92999 22.2031 0.133057 21.22 0.133057Z" fill="black"/>
<path d="M21.22 9.43311H1.78C0.796933 9.43311 0 10.23 0 11.2131V11.7861C0 12.7692 0.796933 13.5661 1.78 13.5661H21.22C22.2031 13.5661 23 12.7692 23 11.7861V11.2131C23 10.23 22.2031 9.43311 21.22 9.43311Z" fill="black"/>
<path d="M21.22 18.7329H1.78C0.796933 18.7329 0 19.5298 0 20.5129V21.0859C0 22.069 0.796933 22.8659 1.78 22.8659H21.22C22.2031 22.8659 23 22.069 23 21.0859V20.5129C23 19.5298 22.2031 18.7329 21.22 18.7329Z" fill="black"/>
</svg>
