<svg width="12" height="13" viewBox="0 0 12 13" fill="none" xmlns="http://www.w3.org/2000/svg">
<path d="M10.469 9.09397L11.75 10.406V11.062H0.75V10.406L2.03101 9.09397V5.53098C2.02138 4.57986 2.34791 3.65599 2.953 2.9221C3.53993 2.17939 4.36009 1.65612 5.28101 1.43699V0.968972C5.27518 0.713482 5.37082 0.466103 5.547 0.280984C5.63731 0.187496 5.74634 0.114076 5.86697 0.0656517C5.9876 0.0172273 6.11712 -0.00511555 6.24701 -2.21672e-05C6.3769 -0.00511555 6.50638 0.0172273 6.62701 0.0656517C6.74764 0.114076 6.85668 0.187496 6.94699 0.280984C7.12317 0.466103 7.21884 0.713482 7.21301 0.968972V1.43699C8.13393 1.65612 8.95406 2.17939 9.54099 2.9221C10.1461 3.65599 10.4726 4.57986 10.463 5.53098L10.469 9.09397ZM7.15601 12.6089C7.04102 12.7341 6.90088 12.8337 6.74475 12.9011C6.58863 12.9685 6.42003 13.0022 6.25 13C6.07997 13.0022 5.91137 12.9685 5.75525 12.9011C5.59912 12.8337 5.45898 12.7341 5.34399 12.6089C5.22331 12.4878 5.12799 12.3441 5.0636 12.1858C4.99921 12.0275 4.96705 11.8579 4.96899 11.687H7.53101C7.53295 11.8579 7.50079 12.0275 7.4364 12.1858C7.37201 12.3441 7.27669 12.4878 7.15601 12.6089Z" fill="#686868"/>
</svg>
