<svg width="17" height="15" viewBox="0 0 17 15" fill="none" xmlns="http://www.w3.org/2000/svg">
<path d="M16.3671 7.30901C16.3671 8.55197 16.0237 9.77077 15.3749 10.8309C14.726 11.8911 13.797 12.7513 12.6901 13.3168C11.5832 13.8822 10.3416 14.1309 9.10229 14.0353C7.86302 13.9397 6.67419 13.5035 5.66711 12.775C4.52767 11.9481 3.67386 10.7871 3.22412 9.453L3.64612 9.353C4.05068 10.5958 4.84578 11.6747 5.91309 12.429C6.99059 13.2103 8.29123 13.6234 9.62207 13.607C10.6555 13.605 11.6726 13.3484 12.5834 12.8601C13.4942 12.3717 14.2707 11.6666 14.8444 10.8069C15.418 9.9473 15.771 8.95961 15.8723 7.93114C15.9737 6.90266 15.8202 5.86506 15.4254 4.90999C15.0306 3.95492 14.4067 3.11176 13.6088 2.45503C12.8108 1.7983 11.8634 1.3482 10.8502 1.14449C9.83704 0.94077 8.78921 0.989707 7.79944 1.28699C6.80966 1.58427 5.90843 2.12074 5.17517 2.849C4.5793 3.4205 4.1078 4.10883 3.79016 4.87093C3.47252 5.63302 3.31551 6.45247 3.3291 7.278L5.12207 5.45L5.43909 5.767L3.08313 8.157L0.62207 5.767L0.939087 5.45L2.87207 7.314C2.87207 5.52378 3.58325 3.8069 4.84912 2.54103C6.11499 1.27516 7.83186 0.563995 9.62207 0.563995C11.4123 0.563995 13.1293 1.27516 14.3951 2.54103C15.661 3.8069 16.3721 5.52378 16.3721 7.314L16.3671 7.30901Z" fill="black"/>
</svg>
