<svg width="21" height="14" viewBox="0 0 21 14" fill="none" xmlns="http://www.w3.org/2000/svg">
<path d="M18.794 0H2.206C0.98766 0 0 0.98766 0 2.206V11.794C0 13.0123 0.98766 14 2.206 14H18.794C20.0123 14 21 13.0123 21 11.794V2.206C21 0.98766 20.0123 0 18.794 0Z" fill="#DA2128"/>
<path d="M10.807 3.87793L11.6131 5.51099C11.6375 5.56068 11.6736 5.60365 11.7184 5.63623C11.7632 5.66881 11.8152 5.69004 11.87 5.698L13.6701 5.95996C13.7332 5.96933 13.7924 5.99616 13.8411 6.03735C13.8898 6.07854 13.9261 6.13244 13.9458 6.19312C13.9656 6.25379 13.9681 6.31888 13.9529 6.38086C13.9377 6.44284 13.9055 6.49924 13.86 6.54395L12.5601 7.81396C12.5207 7.85238 12.4911 7.89972 12.4737 7.9519C12.4563 8.00409 12.4515 8.05966 12.46 8.11401L12.768 9.91406C12.779 9.97741 12.772 10.0425 12.7477 10.1021C12.7235 10.1616 12.683 10.2131 12.6309 10.2507C12.5788 10.2884 12.5171 10.3107 12.4529 10.3149C12.3888 10.3192 12.3246 10.3053 12.268 10.2749L10.656 9.42798C10.6071 9.40189 10.5524 9.38818 10.497 9.38818C10.4415 9.38818 10.387 9.40189 10.338 9.42798L8.72598 10.2749C8.66931 10.3053 8.60532 10.3192 8.54117 10.3149C8.47701 10.3107 8.41532 10.2884 8.36319 10.2507C8.31106 10.2131 8.2705 10.1616 8.24625 10.1021C8.22199 10.0425 8.21498 9.97741 8.22598 9.91406L8.53409 8.11401C8.54254 8.05966 8.53781 8.00409 8.52041 7.9519C8.50302 7.89972 8.47337 7.85238 8.43399 7.81396L7.13406 6.54395C7.08854 6.49924 7.05633 6.44284 7.04117 6.38086C7.026 6.31888 7.02851 6.25379 7.04825 6.19312C7.06799 6.13244 7.10426 6.07854 7.15298 6.03735C7.20171 5.99616 7.26089 5.96933 7.324 5.95996L9.12405 5.698C9.17885 5.69004 9.23089 5.66881 9.27566 5.63623C9.32044 5.60365 9.35658 5.56068 9.38101 5.51099L10.187 3.87793C10.2145 3.8189 10.2583 3.76913 10.3133 3.73413C10.3682 3.69913 10.4319 3.68042 10.497 3.68042C10.5621 3.68042 10.6259 3.69913 10.6808 3.73413C10.7357 3.76913 10.7795 3.8189 10.807 3.87793Z" fill="#F1FF00"/>
</svg>
