<svg width="21" height="14" viewBox="0 0 21 14" fill="none" xmlns="http://www.w3.org/2000/svg">
<path d="M18.794 0H2.206C0.98766 0 0 0.98766 0 2.206V11.794C0 13.0123 0.98766 14 2.206 14H18.794C20.0123 14 21 13.0123 21 11.794V2.206C21 0.98766 20.0123 0 18.794 0Z" fill="#E8E8E8"/>
<rect y="2" width="21" height="1" fill="#DA2128"/>
<rect y="5" width="21" height="1" fill="#DA2128"/>
<rect y="8" width="21" height="1" fill="#DA2128"/>
<rect y="11" width="21" height="1" fill="#DA2128"/>
<path d="M0 2C0 0.895431 0.895431 0 2 0H11V8H0V2Z" fill="#1465DF"/>
<path d="M1.45528 1.02977L1.33899 1.27588C1.33546 1.28337 1.33025 1.28985 1.32379 1.29476C1.31733 1.29967 1.30982 1.30287 1.30192 1.30407L1.04222 1.34355C1.03311 1.34496 1.02458 1.349 1.01755 1.35521C1.01052 1.36142 1.00528 1.36954 1.00243 1.37869C0.999587 1.38783 0.999226 1.39764 1.00141 1.40698C1.0036 1.41632 1.00825 1.42482 1.01482 1.43156L1.20236 1.62296C1.20804 1.62875 1.21232 1.63589 1.21483 1.64375C1.21734 1.65162 1.21802 1.65999 1.2168 1.66819L1.17237 1.93947C1.17078 1.94902 1.17179 1.95883 1.17529 1.9678C1.17879 1.97678 1.18462 1.98454 1.19214 1.99021C1.19967 1.99588 1.20857 1.99924 1.21782 1.99989C1.22708 2.00053 1.23633 1.99843 1.2445 1.99385L1.47706 1.86621C1.48412 1.86228 1.49201 1.86021 1.50001 1.86021C1.50801 1.86021 1.51588 1.86228 1.52294 1.86621L1.75551 1.99385C1.76369 1.99843 1.77292 2.00053 1.78218 1.99989C1.79143 1.99924 1.80033 1.99588 1.80786 1.99021C1.81538 1.98454 1.82123 1.97678 1.82473 1.9678C1.82823 1.95883 1.82924 1.94902 1.82765 1.93947L1.7832 1.66819C1.78198 1.65999 1.78266 1.65162 1.78517 1.64375C1.78768 1.63589 1.79196 1.62875 1.79764 1.62296L1.98518 1.43156C1.99175 1.42482 1.9964 1.41632 1.99859 1.40698C2.00077 1.39764 2.00041 1.38783 1.99757 1.37869C1.99472 1.36954 1.98948 1.36142 1.98245 1.35521C1.97542 1.349 1.96689 1.34496 1.95778 1.34355L1.69808 1.30407C1.69018 1.30287 1.68267 1.29967 1.67621 1.29476C1.66975 1.28985 1.66454 1.28337 1.66101 1.27588L1.54472 1.02977C1.54076 1.02087 1.53444 1.01337 1.52651 1.00809C1.51859 1.00282 1.5094 1 1.50001 1C1.49061 1 1.48141 1.00282 1.47349 1.00809C1.46556 1.01337 1.45924 1.02087 1.45528 1.02977V1.02977Z" fill="white"/>
<path d="M1.45528 3.02977L1.33899 3.27588C1.33546 3.28337 1.33025 3.28985 1.32379 3.29476C1.31733 3.29967 1.30982 3.30287 1.30192 3.30407L1.04222 3.34355C1.03311 3.34496 1.02458 3.349 1.01755 3.35521C1.01052 3.36142 1.00528 3.36954 1.00243 3.37869C0.999587 3.38783 0.999226 3.39764 1.00141 3.40698C1.0036 3.41632 1.00825 3.42482 1.01482 3.43156L1.20236 3.62296C1.20804 3.62875 1.21232 3.63589 1.21483 3.64375C1.21734 3.65162 1.21802 3.65999 1.2168 3.66819L1.17237 3.93947C1.17078 3.94902 1.17179 3.95883 1.17529 3.9678C1.17879 3.97678 1.18462 3.98454 1.19214 3.99021C1.19967 3.99588 1.20857 3.99924 1.21782 3.99989C1.22708 4.00053 1.23633 3.99843 1.2445 3.99385L1.47706 3.86621C1.48412 3.86228 1.49201 3.86021 1.50001 3.86021C1.50801 3.86021 1.51588 3.86228 1.52294 3.86621L1.75551 3.99385C1.76369 3.99843 1.77292 4.00053 1.78218 3.99989C1.79143 3.99924 1.80033 3.99588 1.80786 3.99021C1.81538 3.98454 1.82123 3.97678 1.82473 3.9678C1.82823 3.95883 1.82924 3.94902 1.82765 3.93947L1.7832 3.66819C1.78198 3.65999 1.78266 3.65162 1.78517 3.64375C1.78768 3.63589 1.79196 3.62875 1.79764 3.62296L1.98518 3.43156C1.99175 3.42482 1.9964 3.41632 1.99859 3.40698C2.00077 3.39764 2.00041 3.38783 1.99757 3.37869C1.99472 3.36954 1.98948 3.36142 1.98245 3.35521C1.97542 3.349 1.96689 3.34496 1.95778 3.34355L1.69808 3.30407C1.69018 3.30287 1.68267 3.29967 1.67621 3.29476C1.66975 3.28985 1.66454 3.28337 1.66101 3.27588L1.54472 3.02977C1.54076 3.02087 1.53444 3.01337 1.52651 3.00809C1.51859 3.00282 1.5094 3 1.50001 3C1.49061 3 1.48141 3.00282 1.47349 3.00809C1.46556 3.01337 1.45924 3.02087 1.45528 3.02977V3.02977Z" fill="white"/>
<path d="M1.45528 5.02977L1.33899 5.27588C1.33546 5.28337 1.33025 5.28985 1.32379 5.29476C1.31733 5.29967 1.30982 5.30287 1.30192 5.30407L1.04222 5.34355C1.03311 5.34496 1.02458 5.349 1.01755 5.35521C1.01052 5.36142 1.00528 5.36954 1.00243 5.37869C0.999587 5.38783 0.999226 5.39764 1.00141 5.40698C1.0036 5.41632 1.00825 5.42482 1.01482 5.43156L1.20236 5.62296C1.20804 5.62875 1.21232 5.63589 1.21483 5.64375C1.21734 5.65162 1.21802 5.65999 1.2168 5.66819L1.17237 5.93947C1.17078 5.94902 1.17179 5.95883 1.17529 5.9678C1.17879 5.97678 1.18462 5.98454 1.19214 5.99021C1.19967 5.99588 1.20857 5.99924 1.21782 5.99989C1.22708 6.00053 1.23633 5.99843 1.2445 5.99385L1.47706 5.86621C1.48412 5.86228 1.49201 5.86021 1.50001 5.86021C1.50801 5.86021 1.51588 5.86228 1.52294 5.86621L1.75551 5.99385C1.76369 5.99843 1.77292 6.00053 1.78218 5.99989C1.79143 5.99924 1.80033 5.99588 1.80786 5.99021C1.81538 5.98454 1.82123 5.97678 1.82473 5.9678C1.82823 5.95883 1.82924 5.94902 1.82765 5.93947L1.7832 5.66819C1.78198 5.65999 1.78266 5.65162 1.78517 5.64375C1.78768 5.63589 1.79196 5.62875 1.79764 5.62296L1.98518 5.43156C1.99175 5.42482 1.9964 5.41632 1.99859 5.40698C2.00077 5.39764 2.00041 5.38783 1.99757 5.37869C1.99472 5.36954 1.98948 5.36142 1.98245 5.35521C1.97542 5.349 1.96689 5.34496 1.95778 5.34355L1.69808 5.30407C1.69018 5.30287 1.68267 5.29967 1.67621 5.29476C1.66975 5.28985 1.66454 5.28337 1.66101 5.27588L1.54472 5.02977C1.54076 5.02087 1.53444 5.01337 1.52651 5.00809C1.51859 5.00282 1.5094 5 1.50001 5C1.49061 5 1.48141 5.00282 1.47349 5.00809C1.46556 5.01337 1.45924 5.02087 1.45528 5.02977V5.02977Z" fill="white"/>
<path d="M3.45528 1.02977L3.33899 1.27588C3.33546 1.28337 3.33025 1.28985 3.32379 1.29476C3.31733 1.29967 3.30982 1.30287 3.30192 1.30407L3.04222 1.34355C3.03311 1.34496 3.02458 1.349 3.01755 1.35521C3.01052 1.36142 3.00528 1.36954 3.00243 1.37869C2.99959 1.38783 2.99923 1.39764 3.00141 1.40698C3.0036 1.41632 3.00825 1.42482 3.01482 1.43156L3.20236 1.62296C3.20804 1.62875 3.21232 1.63589 3.21483 1.64375C3.21734 1.65162 3.21802 1.65999 3.2168 1.66819L3.17237 1.93947C3.17078 1.94902 3.17179 1.95883 3.17529 1.9678C3.17879 1.97678 3.18462 1.98454 3.19214 1.99021C3.19967 1.99588 3.20857 1.99924 3.21782 1.99989C3.22708 2.00053 3.23633 1.99843 3.2445 1.99385L3.47706 1.86621C3.48412 1.86228 3.49201 1.86021 3.50001 1.86021C3.50801 1.86021 3.51588 1.86228 3.52294 1.86621L3.75551 1.99385C3.76369 1.99843 3.77292 2.00053 3.78218 1.99989C3.79143 1.99924 3.80033 1.99588 3.80786 1.99021C3.81538 1.98454 3.82123 1.97678 3.82473 1.9678C3.82823 1.95883 3.82924 1.94902 3.82765 1.93947L3.7832 1.66819C3.78198 1.65999 3.78266 1.65162 3.78517 1.64375C3.78768 1.63589 3.79196 1.62875 3.79764 1.62296L3.98518 1.43156C3.99175 1.42482 3.9964 1.41632 3.99859 1.40698C4.00077 1.39764 4.00041 1.38783 3.99757 1.37869C3.99472 1.36954 3.98948 1.36142 3.98245 1.35521C3.97542 1.349 3.96689 1.34496 3.95778 1.34355L3.69808 1.30407C3.69018 1.30287 3.68267 1.29967 3.67621 1.29476C3.66975 1.28985 3.66454 1.28337 3.66101 1.27588L3.54472 1.02977C3.54076 1.02087 3.53444 1.01337 3.52651 1.00809C3.51859 1.00282 3.5094 1 3.50001 1C3.49061 1 3.48141 1.00282 3.47349 1.00809C3.46556 1.01337 3.45924 1.02087 3.45528 1.02977V1.02977Z" fill="white"/>
<path d="M3.45528 3.02977L3.33899 3.27588C3.33546 3.28337 3.33025 3.28985 3.32379 3.29476C3.31733 3.29967 3.30982 3.30287 3.30192 3.30407L3.04222 3.34355C3.03311 3.34496 3.02458 3.349 3.01755 3.35521C3.01052 3.36142 3.00528 3.36954 3.00243 3.37869C2.99959 3.38783 2.99923 3.39764 3.00141 3.40698C3.0036 3.41632 3.00825 3.42482 3.01482 3.43156L3.20236 3.62296C3.20804 3.62875 3.21232 3.63589 3.21483 3.64375C3.21734 3.65162 3.21802 3.65999 3.2168 3.66819L3.17237 3.93947C3.17078 3.94902 3.17179 3.95883 3.17529 3.9678C3.17879 3.97678 3.18462 3.98454 3.19214 3.99021C3.19967 3.99588 3.20857 3.99924 3.21782 3.99989C3.22708 4.00053 3.23633 3.99843 3.2445 3.99385L3.47706 3.86621C3.48412 3.86228 3.49201 3.86021 3.50001 3.86021C3.50801 3.86021 3.51588 3.86228 3.52294 3.86621L3.75551 3.99385C3.76369 3.99843 3.77292 4.00053 3.78218 3.99989C3.79143 3.99924 3.80033 3.99588 3.80786 3.99021C3.81538 3.98454 3.82123 3.97678 3.82473 3.9678C3.82823 3.95883 3.82924 3.94902 3.82765 3.93947L3.7832 3.66819C3.78198 3.65999 3.78266 3.65162 3.78517 3.64375C3.78768 3.63589 3.79196 3.62875 3.79764 3.62296L3.98518 3.43156C3.99175 3.42482 3.9964 3.41632 3.99859 3.40698C4.00077 3.39764 4.00041 3.38783 3.99757 3.37869C3.99472 3.36954 3.98948 3.36142 3.98245 3.35521C3.97542 3.349 3.96689 3.34496 3.95778 3.34355L3.69808 3.30407C3.69018 3.30287 3.68267 3.29967 3.67621 3.29476C3.66975 3.28985 3.66454 3.28337 3.66101 3.27588L3.54472 3.02977C3.54076 3.02087 3.53444 3.01337 3.52651 3.00809C3.51859 3.00282 3.5094 3 3.50001 3C3.49061 3 3.48141 3.00282 3.47349 3.00809C3.46556 3.01337 3.45924 3.02087 3.45528 3.02977V3.02977Z" fill="white"/>
<path d="M3.45528 5.02977L3.33899 5.27588C3.33546 5.28337 3.33025 5.28985 3.32379 5.29476C3.31733 5.29967 3.30982 5.30287 3.30192 5.30407L3.04222 5.34355C3.03311 5.34496 3.02458 5.349 3.01755 5.35521C3.01052 5.36142 3.00528 5.36954 3.00243 5.37869C2.99959 5.38783 2.99923 5.39764 3.00141 5.40698C3.0036 5.41632 3.00825 5.42482 3.01482 5.43156L3.20236 5.62296C3.20804 5.62875 3.21232 5.63589 3.21483 5.64375C3.21734 5.65162 3.21802 5.65999 3.2168 5.66819L3.17237 5.93947C3.17078 5.94902 3.17179 5.95883 3.17529 5.9678C3.17879 5.97678 3.18462 5.98454 3.19214 5.99021C3.19967 5.99588 3.20857 5.99924 3.21782 5.99989C3.22708 6.00053 3.23633 5.99843 3.2445 5.99385L3.47706 5.86621C3.48412 5.86228 3.49201 5.86021 3.50001 5.86021C3.50801 5.86021 3.51588 5.86228 3.52294 5.86621L3.75551 5.99385C3.76369 5.99843 3.77292 6.00053 3.78218 5.99989C3.79143 5.99924 3.80033 5.99588 3.80786 5.99021C3.81538 5.98454 3.82123 5.97678 3.82473 5.9678C3.82823 5.95883 3.82924 5.94902 3.82765 5.93947L3.7832 5.66819C3.78198 5.65999 3.78266 5.65162 3.78517 5.64375C3.78768 5.63589 3.79196 5.62875 3.79764 5.62296L3.98518 5.43156C3.99175 5.42482 3.9964 5.41632 3.99859 5.40698C4.00077 5.39764 4.00041 5.38783 3.99757 5.37869C3.99472 5.36954 3.98948 5.36142 3.98245 5.35521C3.97542 5.349 3.96689 5.34496 3.95778 5.34355L3.69808 5.30407C3.69018 5.30287 3.68267 5.29967 3.67621 5.29476C3.66975 5.28985 3.66454 5.28337 3.66101 5.27588L3.54472 5.02977C3.54076 5.02087 3.53444 5.01337 3.52651 5.00809C3.51859 5.00282 3.5094 5 3.50001 5C3.49061 5 3.48141 5.00282 3.47349 5.00809C3.46556 5.01337 3.45924 5.02087 3.45528 5.02977V5.02977Z" fill="white"/>
<path d="M5.45528 1.02977L5.33899 1.27588C5.33546 1.28337 5.33025 1.28985 5.32379 1.29476C5.31733 1.29967 5.30982 1.30287 5.30192 1.30407L5.04222 1.34355C5.03311 1.34496 5.02458 1.349 5.01755 1.35521C5.01052 1.36142 5.00528 1.36954 5.00243 1.37869C4.99959 1.38783 4.99923 1.39764 5.00141 1.40698C5.0036 1.41632 5.00825 1.42482 5.01482 1.43156L5.20236 1.62296C5.20804 1.62875 5.21232 1.63589 5.21483 1.64375C5.21734 1.65162 5.21802 1.65999 5.2168 1.66819L5.17237 1.93947C5.17078 1.94902 5.17179 1.95883 5.17529 1.9678C5.17879 1.97678 5.18462 1.98454 5.19214 1.99021C5.19967 1.99588 5.20857 1.99924 5.21782 1.99989C5.22708 2.00053 5.23633 1.99843 5.2445 1.99385L5.47706 1.86621C5.48412 1.86228 5.49201 1.86021 5.50001 1.86021C5.50801 1.86021 5.51588 1.86228 5.52294 1.86621L5.75551 1.99385C5.76369 1.99843 5.77292 2.00053 5.78218 1.99989C5.79143 1.99924 5.80033 1.99588 5.80786 1.99021C5.81538 1.98454 5.82123 1.97678 5.82473 1.9678C5.82823 1.95883 5.82924 1.94902 5.82765 1.93947L5.7832 1.66819C5.78198 1.65999 5.78266 1.65162 5.78517 1.64375C5.78768 1.63589 5.79196 1.62875 5.79764 1.62296L5.98518 1.43156C5.99175 1.42482 5.9964 1.41632 5.99859 1.40698C6.00077 1.39764 6.00041 1.38783 5.99757 1.37869C5.99472 1.36954 5.98948 1.36142 5.98245 1.35521C5.97542 1.349 5.96689 1.34496 5.95778 1.34355L5.69808 1.30407C5.69018 1.30287 5.68267 1.29967 5.67621 1.29476C5.66975 1.28985 5.66454 1.28337 5.66101 1.27588L5.54472 1.02977C5.54076 1.02087 5.53444 1.01337 5.52651 1.00809C5.51859 1.00282 5.5094 1 5.50001 1C5.49061 1 5.48141 1.00282 5.47349 1.00809C5.46556 1.01337 5.45924 1.02087 5.45528 1.02977V1.02977Z" fill="white"/>
<path d="M7.45528 1.02977L7.33899 1.27588C7.33546 1.28337 7.33025 1.28985 7.32379 1.29476C7.31733 1.29967 7.30982 1.30287 7.30192 1.30407L7.04222 1.34355C7.03311 1.34496 7.02458 1.349 7.01755 1.35521C7.01052 1.36142 7.00528 1.36954 7.00243 1.37869C6.99959 1.38783 6.99923 1.39764 7.00141 1.40698C7.0036 1.41632 7.00825 1.42482 7.01482 1.43156L7.20236 1.62296C7.20804 1.62875 7.21232 1.63589 7.21483 1.64375C7.21734 1.65162 7.21802 1.65999 7.2168 1.66819L7.17237 1.93947C7.17078 1.94902 7.17179 1.95883 7.17529 1.9678C7.17879 1.97678 7.18462 1.98454 7.19214 1.99021C7.19967 1.99588 7.20857 1.99924 7.21782 1.99989C7.22708 2.00053 7.23633 1.99843 7.2445 1.99385L7.47706 1.86621C7.48412 1.86228 7.49201 1.86021 7.50001 1.86021C7.50801 1.86021 7.51588 1.86228 7.52294 1.86621L7.75551 1.99385C7.76369 1.99843 7.77292 2.00053 7.78218 1.99989C7.79143 1.99924 7.80033 1.99588 7.80786 1.99021C7.81538 1.98454 7.82123 1.97678 7.82473 1.9678C7.82823 1.95883 7.82924 1.94902 7.82765 1.93947L7.7832 1.66819C7.78198 1.65999 7.78266 1.65162 7.78517 1.64375C7.78768 1.63589 7.79196 1.62875 7.79764 1.62296L7.98518 1.43156C7.99175 1.42482 7.9964 1.41632 7.99859 1.40698C8.00077 1.39764 8.00041 1.38783 7.99757 1.37869C7.99472 1.36954 7.98948 1.36142 7.98245 1.35521C7.97542 1.349 7.96689 1.34496 7.95778 1.34355L7.69808 1.30407C7.69018 1.30287 7.68267 1.29967 7.67621 1.29476C7.66975 1.28985 7.66454 1.28337 7.66101 1.27588L7.54472 1.02977C7.54076 1.02087 7.53444 1.01337 7.52651 1.00809C7.51859 1.00282 7.5094 1 7.50001 1C7.49061 1 7.48141 1.00282 7.47349 1.00809C7.46556 1.01337 7.45924 1.02087 7.45528 1.02977V1.02977Z" fill="white"/>
<path d="M9.45528 1.02977L9.33899 1.27588C9.33546 1.28337 9.33025 1.28985 9.32379 1.29476C9.31733 1.29967 9.30982 1.30287 9.30192 1.30407L9.04222 1.34355C9.03311 1.34496 9.02458 1.349 9.01755 1.35521C9.01052 1.36142 9.00528 1.36954 9.00243 1.37869C8.99959 1.38783 8.99923 1.39764 9.00141 1.40698C9.0036 1.41632 9.00825 1.42482 9.01482 1.43156L9.20236 1.62296C9.20804 1.62875 9.21232 1.63589 9.21483 1.64375C9.21734 1.65162 9.21802 1.65999 9.2168 1.66819L9.17237 1.93947C9.17078 1.94902 9.17179 1.95883 9.17529 1.9678C9.17879 1.97678 9.18462 1.98454 9.19214 1.99021C9.19967 1.99588 9.20857 1.99924 9.21782 1.99989C9.22708 2.00053 9.23633 1.99843 9.2445 1.99385L9.47706 1.86621C9.48412 1.86228 9.49201 1.86021 9.50001 1.86021C9.50801 1.86021 9.51588 1.86228 9.52294 1.86621L9.75551 1.99385C9.76369 1.99843 9.77292 2.00053 9.78218 1.99989C9.79143 1.99924 9.80033 1.99588 9.80786 1.99021C9.81538 1.98454 9.82123 1.97678 9.82473 1.9678C9.82823 1.95883 9.82924 1.94902 9.82765 1.93947L9.7832 1.66819C9.78198 1.65999 9.78266 1.65162 9.78517 1.64375C9.78768 1.63589 9.79196 1.62875 9.79764 1.62296L9.98518 1.43156C9.99175 1.42482 9.9964 1.41632 9.99859 1.40698C10.0008 1.39764 10.0004 1.38783 9.99757 1.37869C9.99472 1.36954 9.98948 1.36142 9.98245 1.35521C9.97542 1.349 9.96689 1.34496 9.95778 1.34355L9.69808 1.30407C9.69018 1.30287 9.68267 1.29967 9.67621 1.29476C9.66975 1.28985 9.66454 1.28337 9.66101 1.27588L9.54472 1.02977C9.54076 1.02087 9.53444 1.01337 9.52651 1.00809C9.51859 1.00282 9.5094 1 9.50001 1C9.49061 1 9.48141 1.00282 9.47349 1.00809C9.46556 1.01337 9.45924 1.02087 9.45528 1.02977V1.02977Z" fill="white"/>
<path d="M5.45528 3.02977L5.33899 3.27588C5.33546 3.28337 5.33025 3.28985 5.32379 3.29476C5.31733 3.29967 5.30982 3.30287 5.30192 3.30407L5.04222 3.34355C5.03311 3.34496 5.02458 3.349 5.01755 3.35521C5.01052 3.36142 5.00528 3.36954 5.00243 3.37869C4.99959 3.38783 4.99923 3.39764 5.00141 3.40698C5.0036 3.41632 5.00825 3.42482 5.01482 3.43156L5.20236 3.62296C5.20804 3.62875 5.21232 3.63589 5.21483 3.64375C5.21734 3.65162 5.21802 3.65999 5.2168 3.66819L5.17237 3.93947C5.17078 3.94902 5.17179 3.95883 5.17529 3.9678C5.17879 3.97678 5.18462 3.98454 5.19214 3.99021C5.19967 3.99588 5.20857 3.99924 5.21782 3.99989C5.22708 4.00053 5.23633 3.99843 5.2445 3.99385L5.47706 3.86621C5.48412 3.86228 5.49201 3.86021 5.50001 3.86021C5.50801 3.86021 5.51588 3.86228 5.52294 3.86621L5.75551 3.99385C5.76369 3.99843 5.77292 4.00053 5.78218 3.99989C5.79143 3.99924 5.80033 3.99588 5.80786 3.99021C5.81538 3.98454 5.82123 3.97678 5.82473 3.9678C5.82823 3.95883 5.82924 3.94902 5.82765 3.93947L5.7832 3.66819C5.78198 3.65999 5.78266 3.65162 5.78517 3.64375C5.78768 3.63589 5.79196 3.62875 5.79764 3.62296L5.98518 3.43156C5.99175 3.42482 5.9964 3.41632 5.99859 3.40698C6.00077 3.39764 6.00041 3.38783 5.99757 3.37869C5.99472 3.36954 5.98948 3.36142 5.98245 3.35521C5.97542 3.349 5.96689 3.34496 5.95778 3.34355L5.69808 3.30407C5.69018 3.30287 5.68267 3.29967 5.67621 3.29476C5.66975 3.28985 5.66454 3.28337 5.66101 3.27588L5.54472 3.02977C5.54076 3.02087 5.53444 3.01337 5.52651 3.00809C5.51859 3.00282 5.5094 3 5.50001 3C5.49061 3 5.48141 3.00282 5.47349 3.00809C5.46556 3.01337 5.45924 3.02087 5.45528 3.02977V3.02977Z" fill="white"/>
<path d="M7.45528 3.02977L7.33899 3.27588C7.33546 3.28337 7.33025 3.28985 7.32379 3.29476C7.31733 3.29967 7.30982 3.30287 7.30192 3.30407L7.04222 3.34355C7.03311 3.34496 7.02458 3.349 7.01755 3.35521C7.01052 3.36142 7.00528 3.36954 7.00243 3.37869C6.99959 3.38783 6.99923 3.39764 7.00141 3.40698C7.0036 3.41632 7.00825 3.42482 7.01482 3.43156L7.20236 3.62296C7.20804 3.62875 7.21232 3.63589 7.21483 3.64375C7.21734 3.65162 7.21802 3.65999 7.2168 3.66819L7.17237 3.93947C7.17078 3.94902 7.17179 3.95883 7.17529 3.9678C7.17879 3.97678 7.18462 3.98454 7.19214 3.99021C7.19967 3.99588 7.20857 3.99924 7.21782 3.99989C7.22708 4.00053 7.23633 3.99843 7.2445 3.99385L7.47706 3.86621C7.48412 3.86228 7.49201 3.86021 7.50001 3.86021C7.50801 3.86021 7.51588 3.86228 7.52294 3.86621L7.75551 3.99385C7.76369 3.99843 7.77292 4.00053 7.78218 3.99989C7.79143 3.99924 7.80033 3.99588 7.80786 3.99021C7.81538 3.98454 7.82123 3.97678 7.82473 3.9678C7.82823 3.95883 7.82924 3.94902 7.82765 3.93947L7.7832 3.66819C7.78198 3.65999 7.78266 3.65162 7.78517 3.64375C7.78768 3.63589 7.79196 3.62875 7.79764 3.62296L7.98518 3.43156C7.99175 3.42482 7.9964 3.41632 7.99859 3.40698C8.00077 3.39764 8.00041 3.38783 7.99757 3.37869C7.99472 3.36954 7.98948 3.36142 7.98245 3.35521C7.97542 3.349 7.96689 3.34496 7.95778 3.34355L7.69808 3.30407C7.69018 3.30287 7.68267 3.29967 7.67621 3.29476C7.66975 3.28985 7.66454 3.28337 7.66101 3.27588L7.54472 3.02977C7.54076 3.02087 7.53444 3.01337 7.52651 3.00809C7.51859 3.00282 7.5094 3 7.50001 3C7.49061 3 7.48141 3.00282 7.47349 3.00809C7.46556 3.01337 7.45924 3.02087 7.45528 3.02977V3.02977Z" fill="white"/>
<path d="M9.45528 3.02977L9.33899 3.27588C9.33546 3.28337 9.33025 3.28985 9.32379 3.29476C9.31733 3.29967 9.30982 3.30287 9.30192 3.30407L9.04222 3.34355C9.03311 3.34496 9.02458 3.349 9.01755 3.35521C9.01052 3.36142 9.00528 3.36954 9.00243 3.37869C8.99959 3.38783 8.99923 3.39764 9.00141 3.40698C9.0036 3.41632 9.00825 3.42482 9.01482 3.43156L9.20236 3.62296C9.20804 3.62875 9.21232 3.63589 9.21483 3.64375C9.21734 3.65162 9.21802 3.65999 9.2168 3.66819L9.17237 3.93947C9.17078 3.94902 9.17179 3.95883 9.17529 3.9678C9.17879 3.97678 9.18462 3.98454 9.19214 3.99021C9.19967 3.99588 9.20857 3.99924 9.21782 3.99989C9.22708 4.00053 9.23633 3.99843 9.2445 3.99385L9.47706 3.86621C9.48412 3.86228 9.49201 3.86021 9.50001 3.86021C9.50801 3.86021 9.51588 3.86228 9.52294 3.86621L9.75551 3.99385C9.76369 3.99843 9.77292 4.00053 9.78218 3.99989C9.79143 3.99924 9.80033 3.99588 9.80786 3.99021C9.81538 3.98454 9.82123 3.97678 9.82473 3.9678C9.82823 3.95883 9.82924 3.94902 9.82765 3.93947L9.7832 3.66819C9.78198 3.65999 9.78266 3.65162 9.78517 3.64375C9.78768 3.63589 9.79196 3.62875 9.79764 3.62296L9.98518 3.43156C9.99175 3.42482 9.9964 3.41632 9.99859 3.40698C10.0008 3.39764 10.0004 3.38783 9.99757 3.37869C9.99472 3.36954 9.98948 3.36142 9.98245 3.35521C9.97542 3.349 9.96689 3.34496 9.95778 3.34355L9.69808 3.30407C9.69018 3.30287 9.68267 3.29967 9.67621 3.29476C9.66975 3.28985 9.66454 3.28337 9.66101 3.27588L9.54472 3.02977C9.54076 3.02087 9.53444 3.01337 9.52651 3.00809C9.51859 3.00282 9.5094 3 9.50001 3C9.49061 3 9.48141 3.00282 9.47349 3.00809C9.46556 3.01337 9.45924 3.02087 9.45528 3.02977V3.02977Z" fill="white"/>
<path d="M5.45528 5.02977L5.33899 5.27588C5.33546 5.28337 5.33025 5.28985 5.32379 5.29476C5.31733 5.29967 5.30982 5.30287 5.30192 5.30407L5.04222 5.34355C5.03311 5.34496 5.02458 5.349 5.01755 5.35521C5.01052 5.36142 5.00528 5.36954 5.00243 5.37869C4.99959 5.38783 4.99923 5.39764 5.00141 5.40698C5.0036 5.41632 5.00825 5.42482 5.01482 5.43156L5.20236 5.62296C5.20804 5.62875 5.21232 5.63589 5.21483 5.64375C5.21734 5.65162 5.21802 5.65999 5.2168 5.66819L5.17237 5.93947C5.17078 5.94902 5.17179 5.95883 5.17529 5.9678C5.17879 5.97678 5.18462 5.98454 5.19214 5.99021C5.19967 5.99588 5.20857 5.99924 5.21782 5.99989C5.22708 6.00053 5.23633 5.99843 5.2445 5.99385L5.47706 5.86621C5.48412 5.86228 5.49201 5.86021 5.50001 5.86021C5.50801 5.86021 5.51588 5.86228 5.52294 5.86621L5.75551 5.99385C5.76369 5.99843 5.77292 6.00053 5.78218 5.99989C5.79143 5.99924 5.80033 5.99588 5.80786 5.99021C5.81538 5.98454 5.82123 5.97678 5.82473 5.9678C5.82823 5.95883 5.82924 5.94902 5.82765 5.93947L5.7832 5.66819C5.78198 5.65999 5.78266 5.65162 5.78517 5.64375C5.78768 5.63589 5.79196 5.62875 5.79764 5.62296L5.98518 5.43156C5.99175 5.42482 5.9964 5.41632 5.99859 5.40698C6.00077 5.39764 6.00041 5.38783 5.99757 5.37869C5.99472 5.36954 5.98948 5.36142 5.98245 5.35521C5.97542 5.349 5.96689 5.34496 5.95778 5.34355L5.69808 5.30407C5.69018 5.30287 5.68267 5.29967 5.67621 5.29476C5.66975 5.28985 5.66454 5.28337 5.66101 5.27588L5.54472 5.02977C5.54076 5.02087 5.53444 5.01337 5.52651 5.00809C5.51859 5.00282 5.5094 5 5.50001 5C5.49061 5 5.48141 5.00282 5.47349 5.00809C5.46556 5.01337 5.45924 5.02087 5.45528 5.02977V5.02977Z" fill="white"/>
<path d="M7.45528 5.02977L7.33899 5.27588C7.33546 5.28337 7.33025 5.28985 7.32379 5.29476C7.31733 5.29967 7.30982 5.30287 7.30192 5.30407L7.04222 5.34355C7.03311 5.34496 7.02458 5.349 7.01755 5.35521C7.01052 5.36142 7.00528 5.36954 7.00243 5.37869C6.99959 5.38783 6.99923 5.39764 7.00141 5.40698C7.0036 5.41632 7.00825 5.42482 7.01482 5.43156L7.20236 5.62296C7.20804 5.62875 7.21232 5.63589 7.21483 5.64375C7.21734 5.65162 7.21802 5.65999 7.2168 5.66818L7.17237 5.93947C7.17078 5.94902 7.17179 5.95883 7.17529 5.9678C7.17879 5.97678 7.18462 5.98454 7.19214 5.99021C7.19967 5.99588 7.20857 5.99924 7.21782 5.99989C7.22708 6.00053 7.23633 5.99843 7.2445 5.99385L7.47706 5.86621C7.48412 5.86228 7.49201 5.86021 7.50001 5.86021C7.50801 5.86021 7.51588 5.86228 7.52294 5.86621L7.75551 5.99385C7.76369 5.99843 7.77292 6.00053 7.78218 5.99989C7.79143 5.99924 7.80033 5.99588 7.80786 5.99021C7.81538 5.98454 7.82123 5.97678 7.82473 5.9678C7.82823 5.95883 7.82924 5.94902 7.82765 5.93947L7.7832 5.66818C7.78198 5.65999 7.78266 5.65162 7.78517 5.64375C7.78768 5.63589 7.79196 5.62875 7.79764 5.62296L7.98518 5.43156C7.99175 5.42482 7.9964 5.41632 7.99859 5.40698C8.00077 5.39764 8.00041 5.38783 7.99757 5.37869C7.99472 5.36954 7.98948 5.36142 7.98245 5.35521C7.97542 5.349 7.96689 5.34496 7.95778 5.34355L7.69808 5.30407C7.69018 5.30287 7.68267 5.29967 7.67621 5.29476C7.66975 5.28985 7.66454 5.28337 7.66101 5.27588L7.54472 5.02977C7.54076 5.02087 7.53444 5.01337 7.52651 5.00809C7.51859 5.00282 7.5094 5 7.50001 5C7.49061 5 7.48141 5.00282 7.47349 5.00809C7.46556 5.01337 7.45924 5.02087 7.45528 5.02977Z" fill="white"/>
<path d="M9.45528 5.02977L9.33899 5.27588C9.33546 5.28337 9.33025 5.28985 9.32379 5.29476C9.31733 5.29967 9.30982 5.30287 9.30192 5.30407L9.04222 5.34355C9.03311 5.34496 9.02458 5.349 9.01755 5.35521C9.01052 5.36142 9.00528 5.36954 9.00243 5.37869C8.99959 5.38783 8.99923 5.39764 9.00141 5.40698C9.0036 5.41632 9.00825 5.42482 9.01482 5.43156L9.20236 5.62296C9.20804 5.62875 9.21232 5.63589 9.21483 5.64375C9.21734 5.65162 9.21802 5.65999 9.2168 5.66819L9.17237 5.93947C9.17078 5.94902 9.17179 5.95883 9.17529 5.9678C9.17879 5.97678 9.18462 5.98454 9.19214 5.99021C9.19967 5.99588 9.20857 5.99924 9.21782 5.99989C9.22708 6.00053 9.23633 5.99843 9.2445 5.99385L9.47706 5.86621C9.48412 5.86228 9.49201 5.86021 9.50001 5.86021C9.50801 5.86021 9.51588 5.86228 9.52294 5.86621L9.75551 5.99385C9.76369 5.99843 9.77292 6.00053 9.78218 5.99989C9.79143 5.99924 9.80033 5.99588 9.80786 5.99021C9.81538 5.98454 9.82123 5.97678 9.82473 5.9678C9.82823 5.95883 9.82924 5.94902 9.82765 5.93947L9.7832 5.66819C9.78198 5.65999 9.78266 5.65162 9.78517 5.64375C9.78768 5.63589 9.79196 5.62875 9.79764 5.62296L9.98518 5.43156C9.99175 5.42482 9.9964 5.41632 9.99859 5.40698C10.0008 5.39764 10.0004 5.38783 9.99757 5.37869C9.99472 5.36954 9.98948 5.36142 9.98245 5.35521C9.97542 5.349 9.96689 5.34496 9.95778 5.34355L9.69808 5.30407C9.69018 5.30287 9.68267 5.29967 9.67621 5.29476C9.66975 5.28985 9.66454 5.28337 9.66101 5.27588L9.54472 5.02977C9.54076 5.02087 9.53444 5.01337 9.52651 5.00809C9.51859 5.00282 9.5094 5 9.50001 5C9.49061 5 9.48141 5.00282 9.47349 5.00809C9.46556 5.01337 9.45924 5.02087 9.45528 5.02977V5.02977Z" fill="white"/>
</svg>
