<svg width="219" height="53" viewBox="0 0 219 53" fill="none" xmlns="http://www.w3.org/2000/svg">
<path d="M59 40.5548C58.9895 37.7904 58.0209 35.1153 56.259 32.985L32.111 4.26701C31.0207 2.9376 29.6445 1.87136 28.0847 1.14811C26.525 0.424859 24.8221 0.0632627 23.103 0.0900053C19.9899 0.0992395 17.007 1.34003 14.8058 3.54142C12.6046 5.74282 11.3639 8.72593 11.355 11.839C11.3658 14.6036 12.3349 17.2787 14.097 19.4089L38.245 48.258C39.3353 49.5869 40.7115 50.6526 42.271 51.3756C43.8305 52.0987 45.5332 52.4606 47.252 52.434C50.378 52.3941 53.3628 51.1256 55.5612 48.9027C57.7595 46.6799 58.9947 43.6811 59 40.5548Z" fill="url(#paint0_radial)"/>
<path d="M54.432 49.8239C56.6337 48.1493 58.1621 45.7409 58.74 43.0358L65.14 14.4489C65.5426 12.7644 65.5639 11.0115 65.2025 9.31775C64.8411 7.62402 64.106 6.03221 63.051 4.65882C62.1215 3.42691 60.957 2.39159 59.625 1.61243C58.2929 0.833264 56.8196 0.325848 55.2903 0.119509C53.7609 -0.0868302 52.2058 0.011992 50.7148 0.41028C49.2239 0.808568 47.8267 1.49829 46.604 2.43982C44.402 4.11412 42.8735 6.52265 42.296 9.22791L36.031 37.1608L35.9 37.945C35.4972 39.6293 35.4756 41.3823 35.8369 43.0761C36.1981 44.7698 36.9331 46.3615 37.988 47.735C38.9267 48.9571 40.0981 49.981 41.4345 50.7482C42.771 51.5153 44.2462 52.0103 45.7749 52.2045C47.3036 52.3987 48.8556 52.2884 50.3414 51.8798C51.8272 51.4712 53.2175 50.7724 54.432 49.8239Z" fill="url(#paint1_radial)"/>
<path d="M89.677 40.5548C89.6662 37.7903 88.6972 35.1152 86.9351 32.985L62.656 4.26701C61.5662 2.93765 60.1903 1.87137 58.6309 1.14811C57.0714 0.424848 55.3688 0.0632728 53.65 0.0900043C50.5369 0.0992385 47.554 1.34003 45.3528 3.54142C43.1516 5.74282 41.9109 8.72593 41.902 11.839C41.9121 14.6034 42.8804 17.2785 44.642 19.4089L68.791 48.258C69.8811 49.5872 71.2573 50.6531 72.8169 51.3761C74.3765 52.0992 76.0791 52.4609 77.798 52.434C80.9449 52.4224 83.9597 51.167 86.1849 48.9418C88.4102 46.7166 89.6654 43.7018 89.677 40.5548Z" fill="url(#paint2_radial)"/>
<path d="M11.748 28.8081C13.2908 28.808 14.8183 29.1116 16.2437 29.7019C17.669 30.2922 18.9641 31.1575 20.0551 32.2483C21.146 33.3391 22.0113 34.634 22.6017 36.0593C23.1921 37.4846 23.496 39.0122 23.496 40.5549C23.496 43.6707 22.2582 46.6589 20.0551 48.8621C17.8519 51.0652 14.8638 52.303 11.748 52.303C8.63228 52.303 5.6441 51.0652 3.44092 48.8621C1.23774 46.6589 0 43.6707 0 40.5549C-5.58975e-09 39.0122 0.303883 37.4846 0.894287 36.0593C1.48469 34.634 2.35 33.3391 3.44092 32.2483C4.53183 31.1575 5.82699 30.2922 7.25232 29.7019C8.67765 29.1116 10.2053 28.808 11.748 28.8081Z" fill="url(#paint3_radial)"/>
<path d="M214.466 25.283L214.206 25.023L214.466 24.762C216.285 22.5692 217.217 19.7747 217.078 16.929C216.817 10.402 210.942 5.44198 203.764 5.44198H188.364C187.763 5.43839 187.167 5.55419 186.611 5.78255C186.056 6.01091 185.55 6.3473 185.126 6.7723C184.701 7.1973 184.364 7.70243 184.136 8.25838C183.908 8.81433 183.792 9.4101 183.796 10.0111V42.6441C183.792 43.2451 183.908 43.8409 184.136 44.3968C184.364 44.9528 184.7 45.4577 185.125 45.8826C185.55 46.3076 186.055 46.644 186.611 46.8722C187.167 47.1003 187.763 47.2158 188.364 47.212H203.637C207.343 47.2534 210.93 45.9028 213.688 43.4271C215.021 42.2752 216.094 40.8534 216.837 39.2557C217.579 37.658 217.974 35.9207 217.995 34.159C218.058 32.5153 217.776 30.8765 217.169 29.348C216.561 27.8194 215.64 26.4348 214.466 25.283ZM192.797 13.6661H204.415C205.379 13.6848 206.297 14.076 206.979 14.7574C207.66 15.4388 208.051 16.3576 208.07 17.3211C208.051 18.2846 207.66 19.2032 206.978 19.8846C206.297 20.566 205.378 20.9572 204.415 20.9762H192.8L192.797 13.6661ZM204.546 38.7281H192.8V29.328H204.418C205.047 29.3235 205.671 29.4465 206.252 29.6893C206.833 29.9321 207.359 30.2899 207.798 30.741C208.237 31.1922 208.58 31.7276 208.807 32.3148C209.034 32.902 209.14 33.5289 209.118 34.158C209.11 35.368 208.626 36.5263 207.77 37.3817C206.914 38.2371 205.756 38.7208 204.546 38.7281Z" fill="black"/>
<path d="M165.256 22.02C161.731 21.106 157.556 19.932 157.293 17.06C157.163 15.102 158.729 13.4049 161.34 13.0129C166.56 12.3609 171.13 15.3629 173.61 16.0129C176.09 16.6629 178.047 14.577 178.31 12.488C178.702 9.35598 175.569 7.65795 174.394 6.87495C171.128 5.05463 167.431 4.1523 163.694 4.26386C154.426 4.26386 148.03 9.61593 148.03 17.1879C147.942 19.0122 148.315 20.8293 149.113 22.4719C149.912 24.1145 151.11 25.5298 152.599 26.5878C158.472 31.0248 169.959 30.504 169.959 35.072C169.959 39.118 162.389 41.729 154.035 36.247C153.282 35.6762 152.369 35.3564 151.424 35.333C150.318 35.3406 149.26 35.7829 148.479 36.5646C147.697 37.3463 147.254 38.4045 147.247 39.51C147.218 40.242 147.399 40.9671 147.77 41.5991L147.639 41.729L147.77 41.5991C147.77 41.7291 147.899 41.7291 147.899 41.8601C148.724 43.1133 149.845 44.1438 151.163 44.8601C153.251 46.2951 157.168 47.9919 163.042 47.9919C167.871 47.9919 171.918 46.817 174.789 44.468C176.225 43.2819 177.372 41.7833 178.141 40.0866C178.911 38.39 179.282 36.5401 179.228 34.6779C179.484 26.8499 172.566 23.977 165.256 22.02Z" fill="black"/>
<path d="M138.365 5.31201H135.494C134.706 5.30922 133.934 5.528 133.264 5.94336C132.595 6.35872 132.056 6.95381 131.709 7.66089L122.048 27.761L112.389 7.66089C112.014 6.94867 111.45 6.35315 110.76 5.93897C110.07 5.52479 109.279 5.30795 108.474 5.31201H105.601C104.394 5.3268 103.24 5.81305 102.387 6.66675C101.533 7.52045 101.047 8.67402 101.033 9.8811V43.0359C101.035 43.8418 101.253 44.6324 101.664 45.3252C102.076 46.018 102.666 46.5876 103.373 46.9744C104.08 47.3611 104.878 47.5509 105.684 47.5239C106.489 47.4969 107.272 47.2542 107.952 46.821C108.588 46.4798 109.119 45.971 109.487 45.3499C109.855 44.7287 110.046 44.019 110.04 43.2971V23.5859L118.133 39.1189C118.5 39.8383 119.061 40.4403 119.753 40.856C120.446 41.2716 121.241 41.4844 122.048 41.47C122.856 41.4845 123.651 41.2719 124.344 40.8562C125.036 40.4405 125.598 39.8384 125.965 39.1189L134.058 23.5859V43.2971C134.052 44.0192 134.243 44.7292 134.611 45.3503C134.979 45.9715 135.51 46.4801 136.147 46.821C136.831 47.2275 137.61 47.4486 138.406 47.4626C139.201 47.4767 139.987 47.2834 140.685 46.9014C141.384 46.5193 141.97 45.962 142.388 45.2842C142.805 44.6064 143.038 43.8314 143.065 43.0359V9.8811C143.043 8.65349 142.537 7.48426 141.656 6.62842C140.776 5.77258 139.593 5.29941 138.365 5.31201Z" fill="black"/>
<defs>
<radialGradient id="paint0_radial" cx="0" cy="0" r="1" gradientUnits="userSpaceOnUse" gradientTransform="translate(-121.061 15.4262) scale(24.9766 24.9694)">
<stop offset="0.018" stop-color="#6F0000"/>
<stop offset="0.325" stop-color="#910D11"/>
<stop offset="0.446" stop-color="#A61519"/>
<stop offset="0.594" stop-color="#BC1B20"/>
<stop offset="0.738" stop-color="#CB1E24"/>
<stop offset="0.876" stop-color="#D52027"/>
<stop offset="1" stop-color="#DA2128"/>
</radialGradient>
<radialGradient id="paint1_radial" cx="0" cy="0" r="1" gradientUnits="userSpaceOnUse" gradientTransform="translate(-1154.3 30.4433) scale(22.2737 22.2725)">
<stop offset="0.037" stop-color="#6F0000"/>
<stop offset="0.301" stop-color="#910D11"/>
<stop offset="0.417" stop-color="#A01317"/>
<stop offset="0.678" stop-color="#BE1B21"/>
<stop offset="0.881" stop-color="#D11F26"/>
<stop offset="1" stop-color="#DA2128"/>
</radialGradient>
<radialGradient id="paint2_radial" cx="0" cy="0" r="1" gradientUnits="userSpaceOnUse" gradientTransform="translate(-107.521 5.11391) scale(44.9785 44.9659)">
<stop offset="0.356" stop-color="#DA2128"/>
<stop offset="1" stop-color="#F37021"/>
</radialGradient>
<radialGradient id="paint3_radial" cx="0" cy="0" r="1" gradientUnits="userSpaceOnUse" gradientTransform="translate(5.80451 45.0666) scale(23.3315 23.3304)">
<stop offset="0.313" stop-color="#DA2128"/>
<stop offset="0.791" stop-color="#910D11"/>
<stop offset="1" stop-color="#6F0000"/>
</radialGradient>
</defs>
</svg>
